<?xml version="1.0" encoding="utf-8"?>
<!-- Generator: Adobe Illustrator 28.2.0, SVG Export Plug-In . SVG Version: 6.00 Build 0)  -->
<svg version="1.1" id="Layer_2" xmlns="http://www.w3.org/2000/svg" xmlns:xlink="http://www.w3.org/1999/xlink" x="0px" y="0px"
	 viewBox="0 0 617 400" style="enable-background:new 0 0 617 400;" xml:space="preserve">
<style type="text/css">
	.st0{fill:#024AB2;}
	.st1{fill:#005EB8;}
	.st2{fill:#DAE6FF;}
	.st3{fill:#044572;}
	.st4{fill:#0A84F2;}
	.st5{fill:#B75739;}
	.st6{fill:#02355E;}
	.st7{fill:#7D311B;}
	.st8{fill:#CAE9F9;}
	.st9{fill:#AADBF9;}
	.st10{fill:#E5F3FD;}
	.st11{fill:#0073D1;}
	.st12{fill:#262477;}
	.st13{fill:#62B6F4;}
	.st14{fill:#E0E0E0;}
	.st15{fill:#EE7E61;}
	.st16{fill:#FFD546;}
	.st17{fill:#FFFFFF;}
	.st18{fill:#C47F80;}
	.st19{opacity:0.65;}
	.st20{fill:#3333A0;}
	.st21{fill:none;stroke:#0A84F2;stroke-width:2;stroke-linecap:round;stroke-linejoin:round;}
	.st22{fill:none;stroke:#0A84F2;stroke-width:2;stroke-linecap:round;stroke-linejoin:round;stroke-dasharray:0.1039,5.1925;}
	.st23{fill:#B5AAB2;}
	.st24{opacity:0.51;}
	.st25{fill:#00B6FB;}
	.st26{fill:#444444;}
	.st27{opacity:0.82;fill:#735F85;}
	.st28{fill:#F9EBE4;}
	.st29{fill:#F7FAF7;}
	.st30{fill:#262477;stroke:#262477;stroke-width:0.5;stroke-miterlimit:10;}
	.st31{fill:#6C84FA;}
	.st32{fill:#99B4FF;}
	.st33{fill:#4F75FC;}
	.st34{fill:#9E4C2D;}
	.st35{fill:#F7A383;}
	.st36{fill:#CF533E;}
	.st37{fill:#DD9D80;}
	.st38{fill:#7D7D7D;}
	.st39{fill:#F6D2BA;}
	.st40{fill:#D1763D;}
	.st41{fill:#3E2923;}
	.st42{fill:#DA6E55;}
	.st43{fill:#B55724;}
	.st44{fill:#D6A889;}
	.st45{fill:#653428;}
	.st46{fill:#4A1C10;}
	.st47{fill:#A2B3C4;}
	.st48{fill:#B0C2D1;}
	.st49{fill:#2B244A;}
	.st50{fill:#7AA1BC;}
	.st51{fill:none;stroke:#B5AAB2;stroke-linecap:round;stroke-linejoin:round;}
	.st52{fill:none;stroke:#B5AAB2;stroke-linecap:round;stroke-linejoin:round;stroke-dasharray:9.976927e-02,2.9931;}
	.st53{fill:none;stroke:#B5AAB2;stroke-linecap:round;stroke-linejoin:round;stroke-dasharray:9.474947e-02,2.8425;}
</style>
<path class="st0" d="M545.2,325.3c14.2,0.6,28.7,1.6,41.4,4.8c6.7,1.7,13.5,4.8,12.1,8.2c-1.1,2.5-6.3,4.1-11.2,5.2
	c-24.8,5.6-53.5,6.7-81.6,7.1c-30.4,0.4-60.9,0-91.4-1.2c-6.9-0.3-14.4-0.7-19.5-2.9c-19-8.3,10.8-16.5,24.8-18.6
	c23.4-3.4,51.6-3.5,76.3-3.6C512.5,324.2,528.9,324.5,545.2,325.3z"/>
<path class="st0" d="M573,313.9c10.9,0.7,22.1,1.8,31.8,4.7c5.2,1.5,10.3,4.2,9.1,7c-0.9,2.1-4.9,3.3-8.7,4.1
	c-19.2,4.2-41.3,4.7-62.9,4.6c-23.4-0.1-46.9-0.9-70.3-2.4c-5.3-0.3-11.1-0.8-15-2.8c-14.4-7.2,8.6-13.6,19.5-15.1
	c18.1-2.5,39.8-2.1,58.8-1.8C547.9,312.6,560.5,313.1,573,313.9z"/>
<rect x="491.2" y="275.6" class="st1" width="108.2" height="23.7"/>
<circle class="st2" cx="589.9" cy="287.4" r="4"/>
<circle class="st3" cx="589.9" cy="287.4" r="2.8"/>
<rect x="560.2" y="281.8" class="st4" width="20.1" height="11.1"/>
<rect x="491.2" y="299.6" class="st5" width="108.2" height="23.7"/>
<circle class="st2" cx="589.9" cy="311.4" r="4"/>
<circle class="st6" cx="589.9" cy="311.4" r="2.8"/>
<rect x="560.2" y="305.8" class="st7" width="20.1" height="11.1"/>
<rect x="536.7" y="234" class="st8" width="45.4" height="14.6"/>
<rect x="491.2" y="234" class="st9" width="45.4" height="14.6"/>
<rect x="570.8" y="241.1" class="st6" width="11.3" height="0.5"/>
<rect x="536.7" y="236.6" class="st6" width="31.3" height="0.5"/>
<rect x="562.1" y="244.8" class="st6" width="20" height="0.5"/>
<rect x="550.8" y="219.4" class="st10" width="45.4" height="14.6"/>
<rect x="505.3" y="219.4" class="st8" width="45.4" height="14.6"/>
<rect x="499.6" y="248.6" class="st8" width="45.4" height="26.7"/>
<rect x="545" y="248.6" class="st10" width="45.4" height="26.7"/>
<rect x="499.6" y="261.7" class="st6" width="11.3" height="0.5"/>
<rect x="513.7" y="253.5" class="st6" width="62.5" height="0.5"/>
<rect x="536.7" y="258.3" class="st6" width="21.5" height="0.5"/>
<g>
	<g>
		<g>
			<g>
				<g>
					<path class="st11" d="M97.4,64.5h98.7c0.4,0,0.7,0.3,0.7,0.7s-0.3,0.7-0.7,0.7H97.6l-9.3,6c-0.3,0.2-0.8,0.1-1-0.2
						c-0.2-0.3-0.1-0.8,0.2-1l9.5-6.1C97.1,64.5,97.2,64.5,97.4,64.5z"/>
				</g>
			</g>
		</g>
		<g>
			<g>
				<g>
					<path class="st11" d="M78.8,56.1h108.8c0.4,0,0.7,0.3,0.7,0.7s-0.3,0.7-0.7,0.7H78.8c-0.4,0-0.7-0.3-0.7-0.7
						S78.5,56.1,78.8,56.1z"/>
				</g>
			</g>
		</g>
		<g>
			<g>
				<g>
					<circle class="st11" cx="87.9" cy="71.3" r="2.7"/>
				</g>
			</g>
		</g>
		<g>
			<g>
				<g>
					<circle class="st11" cx="78.8" cy="56.9" r="2.7"/>
				</g>
			</g>
		</g>
		<g>
			<g>
				<g>
					<circle class="st11" cx="101.6" cy="74" r="2.7"/>
				</g>
			</g>
		</g>
		<g>
			<g>
				<g>
					<circle class="st11" cx="89.8" cy="49.2" r="2.7"/>
				</g>
			</g>
		</g>
		<g>
			<g>
				<g>
					<circle class="st11" cx="130.2" cy="48.8" r="2.7"/>
				</g>
			</g>
		</g>
		<g>
			<g>
				<g>
					<circle class="st11" cx="140.3" cy="42.9" r="2.7"/>
				</g>
			</g>
		</g>
		<g>
			<g>
				<g>
					<path class="st11" d="M89.8,48.5H99c0.2,0,0.3,0,0.4,0.1l10.5,7.7c0.3,0.2,0.4,0.7,0.2,1c-0.2,0.3-0.7,0.4-1,0.2l-10.3-7.6
						h-8.9c-0.4,0-0.7-0.3-0.7-0.7C89.1,48.8,89.4,48.5,89.8,48.5z"/>
				</g>
			</g>
		</g>
		<g>
			<g>
				<g>
					<path class="st11" d="M102.4,73.3h92.1c0.4,0,0.7,0.3,0.7,0.7s-0.3,0.7-0.7,0.7h-92.1c-0.4,0-0.7-0.3-0.7-0.7
						S102,73.3,102.4,73.3z"/>
				</g>
			</g>
		</g>
		<g>
			<g>
				<g>
					<path class="st11" d="M150.9,43.1h73.3c0.4,0,0.7,0.3,0.7,0.7c0,0.4-0.3,0.7-0.7,0.7h-73.1l-7.5,4.9c-0.1,0.1-0.2,0.1-0.4,0.1
						h-11.6c-0.4,0-0.7-0.3-0.7-0.7c0-0.4,0.3-0.7,0.7-0.7H143l7.5-4.9C150.6,43.2,150.7,43.1,150.9,43.1z"/>
				</g>
			</g>
		</g>
		<g>
			<g>
				<g>
					<path class="st11" d="M148.4,36.8H227c0.4,0,0.7,0.3,0.7,0.7s-0.3,0.7-0.7,0.7h-78.3l-8.5,5.2c-0.3,0.2-0.8,0.1-1-0.2
						c-0.2-0.3-0.1-0.8,0.2-1l8.7-5.3C148.2,36.9,148.3,36.8,148.4,36.8z"/>
				</g>
			</g>
		</g>
	</g>
</g>
<g>
	<g>
		<g>
			<path class="st4" d="M522.7,266.8H179.2c-4.2,0-7.7-3.4-7.7-7.7V35.2c0-4.2,3.4-7.7,7.7-7.7h343.5c4.2,0,7.7,3.4,7.7,7.7v223.9
				C530.4,263.3,527,266.8,522.7,266.8z"/>
		</g>
		<g>
			<path class="st12" d="M185.7,248.8V45.5c0-2.1,1.7-3.8,3.8-3.8h322.9c2.1,0,3.8,1.7,3.8,3.8v203.3c0,2.1-1.7,3.8-3.8,3.8H189.5
				C187.4,252.7,185.7,250.9,185.7,248.8z"/>
		</g>
		<g>
			<path class="st4" d="M299.7,222.2h36.7v-10h-28.3c-1.5,0-3,0.8-3.7,2.1L299.7,222.2z"/>
			<path class="st13" d="M282,219.9h32.5l3.9-6.1c0.6-1,1.7-1.6,2.9-1.6h33.1c1.9,0,3.4,1.5,3.4,3.4v4.3v48c0,1.9-1.5,3.4-3.4,3.4
				H282c-1.9,0-3.4-1.5-3.4-3.4v-44.6C278.6,221.4,280.2,219.9,282,219.9z"/>
			<path class="st14" d="M293.4,229h13.9c0.3,0,0.5-0.2,0.5-0.5l0,0c0-0.3-0.2-0.5-0.5-0.5h-13.9c-0.3,0-0.5,0.2-0.5,0.5l0,0
				C292.9,228.8,293.1,229,293.4,229z"/>
		</g>
		<g>
			<path class="st15" d="M339.3,243.4h30.3v-8.3h-23.4c-1.3,0-2.4,0.7-3.1,1.8L339.3,243.4z"/>
			<path class="st16" d="M324.7,241.5h26.9l3.2-5.1c0.5-0.8,1.4-1.3,2.4-1.3h27.4c1.6,0,2.8,1.3,2.8,2.8v3.6v39.7
				c0,1.6-1.3,2.8-2.8,2.8h-59.8c-1.6,0-2.8-1.3-2.8-2.8v-36.9C321.9,242.8,323.1,241.5,324.7,241.5z"/>
			
				<rect x="326.9" y="246.3" transform="matrix(-1 -4.489932e-11 4.489932e-11 -1 674.7363 499.3884)" class="st17" width="20.9" height="6.7"/>
			<path class="st18" d="M334.1,249h11.5c0.2,0,0.4-0.2,0.4-0.4l0,0c0-0.2-0.2-0.4-0.4-0.4h-11.5c-0.2,0-0.4,0.2-0.4,0.4l0,0
				C333.7,248.8,333.9,249,334.1,249z"/>
			<path class="st18" d="M339,250.8h6.6c0.2,0,0.4-0.2,0.4-0.4l0,0c0-0.2-0.2-0.4-0.4-0.4H339c-0.2,0-0.4,0.2-0.4,0.4l0,0
				C338.6,250.6,338.8,250.8,339,250.8z"/>
		</g>
		<g class="st19">
			<g>
				<g>
					<g>
						<path class="st20" d="M406.6,186.5v35.7l-4.4,6.9c-0.2,0.2-0.1,0.6,0.2,0.7c0.2,0.2,0.6,0.1,0.7-0.2l4.5-7.1
							c0.1-0.1,0.1-0.2,0.1-0.3v-36.1C407.3,186.3,406.9,186.4,406.6,186.5z"/>
					</g>
				</g>
			</g>
			<g>
				<g>
					<g>
						<path class="st20" d="M412.8,184l0,52.2c0,0.3,0.2,0.5,0.5,0.5c0.3,0,0.5-0.2,0.5-0.5l0-52.8
							C413.5,183.6,413.2,183.8,412.8,184z"/>
					</g>
				</g>
			</g>
			<g>
				<g>
					<g>
						<circle class="st20" cx="402.6" cy="229.4" r="2"/>
					</g>
				</g>
			</g>
			<g>
				<g>
					<g>
						<circle class="st20" cx="413.3" cy="236.2" r="2"/>
					</g>
				</g>
			</g>
			<g>
				<g>
					<g>
						<circle class="st20" cx="400.6" cy="219.2" r="2"/>
					</g>
				</g>
			</g>
			<g>
				<g>
					<g>
						<circle class="st20" cx="419.1" cy="228" r="2"/>
					</g>
				</g>
			</g>
			<g>
				<g>
					<g>
						<circle class="st20" cx="425.8" cy="219.7" r="2"/>
					</g>
				</g>
			</g>
			<g>
				<g>
					<g>
						<circle class="st20" cx="430.2" cy="212.1" r="2"/>
					</g>
				</g>
			</g>
			<g>
				<g>
					<g>
						<path class="st20" d="M419.6,228v-6.9c0-0.1,0-0.2-0.1-0.3l-5.7-7.8c-0.2-0.2-0.5-0.3-0.7-0.1c-0.2,0.2-0.3,0.5-0.1,0.7
							l5.6,7.7v6.7c0,0.3,0.2,0.5,0.5,0.5C419.4,228.5,419.6,228.3,419.6,228z"/>
					</g>
				</g>
			</g>
			<g>
				<g>
					<g>
						<path class="st20" d="M400,186.2v32.4c0,0.3,0.2,0.5,0.5,0.5c0.3,0,0.5-0.2,0.5-0.5v-32.1C400.7,186.4,400.4,186.3,400,186.2z
							"/>
					</g>
				</g>
			</g>
			<g>
				<g>
					<g>
						<path class="st20" d="M429,200.2v3.9l-3.6,5.6c-0.1,0.1-0.1,0.2-0.1,0.3v8.7c0,0.3,0.2,0.5,0.5,0.5c0.3,0,0.5-0.2,0.5-0.5
							l0-8.5l3.6-5.6c0.1-0.1,0.1-0.2,0.1-0.3v-4.7C429.7,199.7,429.3,200,429,200.2z"/>
					</g>
				</g>
			</g>
			<g>
				<g>
					<g>
						<path class="st20" d="M433.7,196.7v9.2l-3.9,6.3c-0.2,0.2-0.1,0.6,0.2,0.7c0.2,0.2,0.6,0.1,0.7-0.2l3.9-6.5
							c0-0.1,0.1-0.2,0.1-0.3v-10.3C434.4,196.1,434,196.4,433.7,196.7z"/>
					</g>
				</g>
			</g>
		</g>
		<g>
			<g>
				<line class="st21" x1="329.1" y1="94.7" x2="329.1" y2="94.7"/>
				<line class="st22" x1="334.3" y1="94.7" x2="379.4" y2="94.7"/>
				<line class="st21" x1="382" y1="94.7" x2="382" y2="94.7"/>
			</g>
		</g>
		<g>
			<g>
				
					<rect x="211.8" y="57.4" transform="matrix(-1 -4.489310e-11 4.489310e-11 -1 545.7995 289.9909)" class="st17" width="122.2" height="175.1"/>
				<g>
					<path class="st23" d="M227.9,188.6h76.7c0.7,0,1.3-0.6,1.3-1.3l0,0c0-0.7-0.6-1.3-1.3-1.3h-76.7c-0.7,0-1.3,0.6-1.3,1.3l0,0
						C226.5,188,227.1,188.6,227.9,188.6z"/>
					<path class="st23" d="M227.9,195.6h89.4c0.7,0,1.3-0.6,1.3-1.3l0,0c0-0.7-0.6-1.3-1.3-1.3h-89.4c-0.7,0-1.3,0.6-1.3,1.3l0,0
						C226.5,195,227.1,195.6,227.9,195.6z"/>
				</g>
				<g class="st24">
					<g>
						<path class="st25" d="M241.3,212.1c-7.5,0-13.5-6.1-13.5-13.5c0-7.5,6.1-13.5,13.5-13.5c7.5,0,13.5,6.1,13.5,13.5
							C254.8,206.1,248.8,212.1,241.3,212.1z M241.3,186.4c-6.7,0-12.1,5.4-12.1,12.1s5.4,12.1,12.1,12.1c6.7,0,12.1-5.4,12.1-12.1
							S248,186.4,241.3,186.4z"/>
					</g>
					<g>
						<circle class="st25" cx="241.3" cy="198.6" r="8.3"/>
						<path class="st1" d="M241.3,207.5c-4.9,0-9-4-9-9s4-9,9-9c4.9,0,9,4,9,9S246.2,207.5,241.3,207.5z M241.3,191
							c-4.2,0-7.6,3.4-7.6,7.6c0,4.2,3.4,7.6,7.6,7.6c4.2,0,7.6-3.4,7.6-7.6C248.9,194.4,245.5,191,241.3,191z"/>
					</g>
				</g>
				<g>
					<path class="st26" d="M243.8,78.6c0,0.5-0.2,1-0.4,1.4c-0.2,0.4-0.5,0.8-0.8,1.1c-0.3,0.3-0.7,0.6-1.2,0.7
						c-0.5,0.2-1,0.3-1.7,0.3c-0.6,0-1.2-0.1-1.7-0.3c-0.5-0.2-0.9-0.6-1.3-1c-0.4-0.4-0.6-0.9-0.8-1.5c-0.2-0.6-0.3-1.3-0.3-2v-0.8
						c0-0.7,0.1-1.4,0.3-2c0.2-0.6,0.5-1.1,0.8-1.5c0.4-0.4,0.8-0.8,1.3-1c0.5-0.2,1.1-0.3,1.8-0.3c0.6,0,1.2,0.1,1.6,0.3
						c0.5,0.2,0.9,0.4,1.2,0.7c0.3,0.3,0.6,0.7,0.8,1.1c0.2,0.4,0.3,0.9,0.4,1.4H242c0-0.3-0.1-0.6-0.2-0.9
						c-0.1-0.3-0.2-0.5-0.4-0.7c-0.2-0.2-0.4-0.3-0.6-0.4c-0.3-0.1-0.6-0.1-0.9-0.1c-0.4,0-0.8,0.1-1.1,0.2
						c-0.3,0.2-0.6,0.4-0.8,0.7c-0.2,0.3-0.4,0.6-0.5,1.1c-0.1,0.4-0.2,0.9-0.2,1.5v0.8c0,0.5,0,1,0.1,1.4c0.1,0.4,0.2,0.8,0.4,1.1
						c0.2,0.3,0.4,0.5,0.7,0.7c0.3,0.2,0.7,0.2,1.1,0.2c0.4,0,0.7,0,1-0.1c0.3-0.1,0.5-0.2,0.7-0.4c0.2-0.2,0.3-0.4,0.4-0.6
						c0.1-0.3,0.2-0.5,0.2-0.9H243.8z"/>
					<path class="st26" d="M253.6,77c0,0.8-0.1,1.5-0.3,2.1c-0.2,0.6-0.5,1.1-0.9,1.6c-0.4,0.4-0.8,0.8-1.3,1
						c-0.5,0.2-1.1,0.3-1.7,0.3c-0.6,0-1.2-0.1-1.7-0.3c-0.5-0.2-1-0.6-1.4-1c-0.4-0.4-0.7-1-0.9-1.6c-0.2-0.6-0.3-1.3-0.3-2.1v-0.5
						c0-0.8,0.1-1.5,0.3-2.1c0.2-0.6,0.5-1.2,0.9-1.6c0.4-0.4,0.8-0.8,1.3-1c0.5-0.2,1.1-0.3,1.7-0.3c0.6,0,1.2,0.1,1.7,0.3
						c0.5,0.2,1,0.6,1.4,1c0.4,0.4,0.7,1,0.9,1.6s0.3,1.3,0.3,2.1V77z M251.8,76.5c0-0.6-0.1-1.1-0.2-1.5s-0.3-0.8-0.5-1.1
						c-0.2-0.3-0.5-0.5-0.8-0.7c-0.3-0.2-0.7-0.2-1.1-0.2c-0.4,0-0.7,0.1-1,0.2c-0.3,0.2-0.6,0.4-0.8,0.7c-0.2,0.3-0.4,0.7-0.5,1.1
						c-0.1,0.4-0.2,0.9-0.2,1.5V77c0,0.6,0.1,1.1,0.2,1.5c0.1,0.4,0.3,0.8,0.5,1.1c0.2,0.3,0.5,0.5,0.8,0.7c0.3,0.2,0.7,0.2,1,0.2
						c0.8,0,1.4-0.3,1.8-0.9c0.4-0.6,0.6-1.5,0.6-2.6V76.5z"/>
					<path class="st26" d="M263.6,81.9h-1.8l-4.6-7.3v7.3h-1.8V71.6h1.8l4.6,7.3v-7.3h1.8V81.9z"/>
					<path class="st26" d="M272.9,73h-3.2v8.9H268V73h-3.2v-1.4h8.2V73z"/>
					<path class="st26" d="M278.1,77.9h-2v4h-1.8V71.6h3.6c0.6,0,1.1,0.1,1.6,0.2c0.5,0.1,0.9,0.3,1.2,0.6c0.3,0.3,0.6,0.6,0.7,1
						c0.2,0.4,0.2,0.8,0.2,1.3c0,0.7-0.2,1.3-0.5,1.7c-0.3,0.5-0.8,0.8-1.4,1.1l2.3,4.3v0.1h-1.9L278.1,77.9z M276.1,76.5h1.8
						c0.3,0,0.6,0,0.8-0.1c0.2-0.1,0.4-0.2,0.6-0.4c0.2-0.2,0.3-0.3,0.4-0.5c0.1-0.2,0.1-0.4,0.1-0.7c0-0.3,0-0.5-0.1-0.7
						c-0.1-0.2-0.2-0.4-0.3-0.6c-0.2-0.2-0.4-0.3-0.6-0.4c-0.2-0.1-0.5-0.1-0.9-0.1h-1.8V76.5z"/>
					<path class="st26" d="M289.1,79.5h-4l-0.8,2.4h-1.9l3.9-10.3h1.6l3.9,10.3h-1.9L289.1,79.5z M285.6,78.1h3l-1.5-4.3L285.6,78.1
						z"/>
					<path class="st26" d="M300.7,78.6c0,0.5-0.2,1-0.4,1.4c-0.2,0.4-0.5,0.8-0.8,1.1c-0.3,0.3-0.7,0.6-1.2,0.7
						c-0.5,0.2-1,0.3-1.7,0.3s-1.2-0.1-1.7-0.3c-0.5-0.2-0.9-0.6-1.3-1c-0.4-0.4-0.6-0.9-0.8-1.5c-0.2-0.6-0.3-1.3-0.3-2v-0.8
						c0-0.7,0.1-1.4,0.3-2c0.2-0.6,0.5-1.1,0.8-1.5c0.4-0.4,0.8-0.8,1.3-1c0.5-0.2,1.1-0.3,1.8-0.3c0.6,0,1.2,0.1,1.6,0.3
						c0.5,0.2,0.9,0.4,1.2,0.7c0.3,0.3,0.6,0.7,0.8,1.1c0.2,0.4,0.3,0.9,0.4,1.4h-1.8c0-0.3-0.1-0.6-0.2-0.9
						c-0.1-0.3-0.2-0.5-0.4-0.7c-0.2-0.2-0.4-0.3-0.6-0.4c-0.3-0.1-0.6-0.1-0.9-0.1c-0.4,0-0.8,0.1-1.1,0.2
						c-0.3,0.2-0.6,0.4-0.8,0.7c-0.2,0.3-0.4,0.6-0.5,1.1c-0.1,0.4-0.2,0.9-0.2,1.5v0.8c0,0.5,0,1,0.1,1.4c0.1,0.4,0.2,0.8,0.4,1.1
						c0.2,0.3,0.4,0.5,0.7,0.7c0.3,0.2,0.7,0.2,1.1,0.2c0.4,0,0.7,0,1-0.1c0.3-0.1,0.5-0.2,0.7-0.4c0.2-0.2,0.3-0.4,0.4-0.6
						c0.1-0.3,0.2-0.5,0.2-0.9H300.7z"/>
					<path class="st26" d="M309.5,73h-3.2v8.9h-1.8V73h-3.2v-1.4h8.2V73z"/>
				</g>
			</g>
		</g>
		<g>
			
				<rect x="201.6" y="95.5" transform="matrix(-1 -4.225255e-11 4.225255e-11 -1 504.8839 218.8903)" class="st27" width="101.8" height="27.8"/>
			
				<rect x="240.3" y="148.8" transform="matrix(-1 -4.641810e-11 4.641810e-11 -1 582.4952 328.1248)" class="st27" width="101.9" height="30.6"/>
			
				<rect x="195.9" y="90.4" transform="matrix(-1 -4.488733e-11 4.488733e-11 -1 496.247 211.0845)" class="st28" width="104.5" height="30.4"/>
			<path class="st23" d="M204.5,99.1h76.7c0.7,0,1.3-0.6,1.3-1.3l0,0c0-0.7-0.6-1.3-1.3-1.3h-76.7c-0.7,0-1.3,0.6-1.3,1.3l0,0
				C203.2,98.5,203.8,99.1,204.5,99.1z"/>
			<path class="st23" d="M204.5,104.3h89.4c0.7,0,1.3-0.6,1.3-1.3l0,0c0-0.7-0.6-1.3-1.3-1.3h-89.4c-0.7,0-1.3,0.6-1.3,1.3l0,0
				C203.2,103.7,203.8,104.3,204.5,104.3z"/>
			<path class="st23" d="M204.5,110.1h89.4c0.7,0,1.3-0.6,1.3-1.3l0,0c0-0.7-0.6-1.3-1.3-1.3h-89.4c-0.7,0-1.3,0.6-1.3,1.3l0,0
				C203.2,109.5,203.8,110.1,204.5,110.1z"/>
			<path class="st23" d="M245.7,115.8h48.2c0.7,0,1.3-0.6,1.3-1.3l0,0c0-0.7-0.6-1.3-1.3-1.3h-48.2c-0.7,0-1.3,0.6-1.3,1.3l0,0
				C244.4,115.2,245,115.8,245.7,115.8z"/>
		</g>
		<g>
			
				<rect x="243" y="146.3" transform="matrix(-1 -4.488733e-11 4.488733e-11 -1 590.471 322.9461)" class="st28" width="104.5" height="30.4"/>
			<path class="st23" d="M290.5,154h48.2c0.7,0,1.3-0.6,1.3-1.3l0,0c0-0.7-0.6-1.3-1.3-1.3h-48.2c-0.7,0-1.3,0.6-1.3,1.3l0,0
				C289.2,153.4,289.8,154,290.5,154z"/>
			<path class="st23" d="M249.3,159.3h76.7c0.7,0,1.3-0.6,1.3-1.3l0,0c0-0.7-0.6-1.3-1.3-1.3h-76.7c-0.7,0-1.3,0.6-1.3,1.3l0,0
				C248,158.7,248.6,159.3,249.3,159.3z"/>
			<path class="st23" d="M249.3,165.4h89.4c0.7,0,1.3-0.6,1.3-1.3l0,0c0-0.7-0.6-1.3-1.3-1.3h-89.4c-0.7,0-1.3,0.6-1.3,1.3l0,0
				C248,164.8,248.6,165.4,249.3,165.4z"/>
			<path class="st23" d="M290.5,171.6h48.2c0.7,0,1.3-0.6,1.3-1.3l0,0c0-0.7-0.6-1.3-1.3-1.3h-48.2c-0.7,0-1.3,0.6-1.3,1.3l0,0
				C289.2,171,289.8,171.6,290.5,171.6z"/>
		</g>
		<g>
			<path class="st13" d="M270.2,225.2c4.9-6.4,10.5-12.3,16.9-17.3c1.6-1.2,3.3-2.5,5.4-2.6c1.5-0.1,2.4,0.3,3.1,1.6
				c0.8,1.5,0.3,2.6-0.4,4.1c-1.6,3.3-5.1,7.3-9.1,7.2c-1.7,0-2-1.1-1.1-2.2c0.6-0.7,1.8-1.3,2.6-1.8c1.7-0.9,4-1.8,6-1.7
				c1.5-0.3,2.4,0.6,2.7,2.6c-0.3,0.4-0.5,0.7-0.8,1.1c-0.5,0.6-1.1,1.3-1.3,2.1c-0.2,0.6-0.3,1.2,0.2,1.7c1.2,1.4,5,0.1,6.4-0.3
				c3.1-0.9,6-2.4,8.4-4.6c-0.4-0.2-0.8-0.5-1.2-0.7c-0.7,3.4,3.5,3.6,5.8,3.4c4.1-0.4,8-1.7,11.4-4c0.8-0.5,0-1.8-0.7-1.3
				c-2.1,1.4-4.3,2.5-6.8,3.1c-1,0.3-8.9,2-8.3-0.9c0.2-0.7-0.7-1.2-1.2-0.7c-1.7,1.5-3.7,2.7-5.9,3.6c-1,0.4-6.2,2.1-6.5,1
				c-0.3-0.9,2.1-3,2.3-4.2c0.2-1,0-2-0.7-2.7c-2.1-2.1-7.1-0.5-9.3,0.5c-1.8,0.8-6,2.7-5.7,5.2c0.3,2.7,4.8,2.2,6.5,1.5
				c3.1-1.2,5.6-3.9,7.2-6.7c1.2-2.1,2.4-5.3,0.3-7.3c-1.9-1.8-4.9-1.5-7-0.4c-4.1,1.9-7.7,5.8-10.9,9c-3.4,3.4-6.6,7-9.5,10.8
				C268.4,225.3,269.7,226,270.2,225.2L270.2,225.2z"/>
		</g>
		<polygon class="st28" points="448.3,57.6 418,57.6 418,125.6 466.9,125.6 466.9,76.2 		"/>
		<path class="st9" d="M418,85.1v19.6h45.1V85.1L418,85.1L418,85.1z"/>
		<path class="st23" d="M448.3,57.6l18.6,18.6h-14.7c-2.2,0-3.9-1.7-4-3.9c0,0,0,0,0,0L448.3,57.6z"/>
		<path class="st29" d="M425.2,90.1c0-0.3,0.3-0.6,0.6-0.6h3.4c2.4,0,3.9,1.3,3.9,3.3l0,0c0,2.3-1.9,3.4-4.1,3.4h-2.6v3.2
			c0,0.3-0.3,0.6-0.6,0.6c-0.3,0-0.6-0.3-0.6-0.6L425.2,90.1z M429,95.3c1.7,0,2.9-0.9,2.9-2.3l0,0c0-1.5-1.1-2.3-2.8-2.3h-2.7v4.6
			L429,95.3z"/>
		<path class="st12" d="M435.3,90.1c0-0.3,0.3-0.6,0.6-0.6c0.3,0,0.6,0.3,0.6,0.6v4.2h6.1v-4.2c0-0.3,0.3-0.6,0.6-0.6
			c0.3,0,0.6,0.3,0.6,0.6v9.5c0,0.3-0.3,0.6-0.6,0.6c-0.3,0-0.6-0.3-0.6-0.6v-4.2h-6.1v4.2c0,0.3-0.3,0.6-0.6,0.6
			c-0.3,0-0.6-0.3-0.6-0.6V90.1z"/>
		<path class="st12" d="M446.7,90.1c0-0.3,0.3-0.6,0.6-0.6h3.3c2.4,0,3.9,1.3,3.9,3.3l0,0c0,2.3-1.9,3.4-4.1,3.4h-2.6v3.2
			c0,0.3-0.3,0.6-0.6,0.6c-0.3,0-0.6-0.3-0.6-0.6L446.7,90.1z M450.5,95.3c1.7,0,2.9-0.9,2.9-2.3l0,0c0-1.5-1.1-2.3-2.8-2.3h-2.7
			v4.6L450.5,95.3z"/>
		<polygon class="st28" points="393.4,57.6 363.2,57.6 363.2,125.6 412,125.6 412,76.2 		"/>
		<path class="st5" d="M363.2,85.1v19.6h45.1V85.1H363.2z"/>
		<path class="st23" d="M393.4,57.6L412,76.2h-14.6c-2.2,0-4-1.8-4-3.9V57.6z"/>
		<path class="st29" d="M370.8,90.1c0-0.3,0.3-0.6,0.6-0.6h3.4c2.4,0,3.9,1.3,3.9,3.3l0,0c0,2.3-1.9,3.5-4.1,3.5h-2.6v3.2
			c0,0.3-0.3,0.6-0.6,0.6c-0.3,0-0.6-0.3-0.6-0.6L370.8,90.1z M374.5,95.2c1.7,0,2.9-0.9,2.9-2.4l0,0c0-1.5-1.1-2.3-2.8-2.3h-2.7
			v4.6L374.5,95.2z"/>
		<path class="st29" d="M380.8,90.1c0-0.3,0.3-0.6,0.6-0.6h3.1c3.3,0,5.6,2.3,5.6,5.2l0,0c0,3-2.3,5.3-5.6,5.3h-3.1
			c-0.3,0-0.6-0.3-0.6-0.6L380.8,90.1z M384.5,98.9c2.2,0.2,4.2-1.5,4.4-3.8c0-0.1,0-0.2,0-0.4l0,0c0-2.3-1.8-4.1-4-4.2
			c-0.1,0-0.2,0-0.3,0H382v8.3L384.5,98.9z"/>
		<path class="st29" d="M392.6,90.1c0-0.3,0.3-0.6,0.6-0.6h6.5c0.3,0,0.5,0.2,0.5,0.5l0,0c0,0.3-0.2,0.5-0.5,0.6h-5.9v3.8h5.2
			c0.3,0,0.5,0.2,0.5,0.5c0,0.3-0.2,0.5-0.5,0.5h-5.2v4.1c0,0.3-0.3,0.6-0.6,0.6s-0.6-0.3-0.6-0.6L392.6,90.1z"/>
	</g>
	<g>
		<path class="st20" d="M467.8,144.1c0.1,8.6-0.1,52.3-0.1,52.3c0,3.1-0.9,4.7-4.3,4.7l-97.3-0.2c-3.5,0-3.7-1.1-3.7-3.3l0-2.1
			l0.5-50.1c0-0.9-0.1-3.1,3.1-3.1l100,0.2C467.1,142.4,467.8,143.1,467.8,144.1z"/>
		<g>
			<path class="st30" d="M386.3,158.7c-7,5.5-14,10.9-20.9,16.4c-1,0.8-2,1.6-3,2.3c-0.4,0.3,0.2,1.1,0.6,0.8
				c7-5.5,14-10.9,20.9-16.4c1-0.8,2-1.6,3-2.3C387.4,159.1,386.8,158.3,386.3,158.7L386.3,158.7z"/>
		</g>
		<g>
			<path class="st30" d="M446.9,158.6c7.3,5.6,14.6,11.1,22,16.5c0.8,0.6,2.3,2.1,3.3,2.1c0.6,0.1,0.4-0.9-0.2-0.9
				c0.3,0,0.1,0-0.1-0.1c-0.2-0.1-0.4-0.3-0.6-0.4c-0.7-0.5-1.3-0.9-2-1.4c-2-1.5-4.1-3-6.1-4.5c-4.3-3.2-8.6-6.5-12.9-9.7
				c-1-0.8-2-1.5-3-2.3C446.9,157.5,446.4,158.2,446.9,158.6L446.9,158.6z"/>
		</g>
		<g>
			<path class="st30" d="M466.6,142.6c-10.1,7.8-21.4,16.1-31.9,23.4c-3.8,2.6-7.6,5.2-11.5,7.7c-1.7,1.1-3.4,2.2-5.1,3.2
				c-1.6,0.9-4.4,1.3-6.3,0c-8.2-5.6-16.2-11.8-24.1-17.9c-7.3-5.6-16.2-11.2-23.5-16.8c-0.5-0.4-1.1,0.3-0.5,0.6
				c14.7,11.3,31,22.8,46.1,33.6c0.7,0.5,1.5,1.2,2.3,1.6c0.9,0.5,1.9,0.5,2.8,0.6c2.3,0,3.7-0.8,5.4-1.9c3.8-2.3,7.5-4.8,11.1-7.3
				c7.6-5.2,15.1-10.6,22.5-16.1c4.2-3.1,9.2-7,13.3-10.1C467.7,143,467.1,142.2,466.6,142.6L466.6,142.6z"/>
		</g>
	</g>
	<g>
		<g>
			<g>
				<polygon class="st31" points="523.1,289.5 476.5,289.5 469.7,296.3 469.7,303.1 529.9,303.1 529.9,296.3 				"/>
			</g>
			<g>
				<polygon class="st31" points="513.1,244.4 486.4,244.4 479.6,251.2 479.6,258 519.9,258 519.9,251.2 				"/>
			</g>
			<g>
				<path class="st32" d="M456,303.1c-2,0-3.7,1.6-3.7,3.7v27c0,2,1.6,3.7,3.7,3.7h70.9v-34.3H456z"/>
			</g>
			<g>
				<path class="st32" d="M547.2,306.8c0-2-1.6-3.7-3.7-3.7h-16.6v34.3h16.3c2.2,0,4-1.8,4-4V306.8z"/>
			</g>
			<g>
				<path class="st32" d="M519.9,258h-40.3l-5.9,13.3c-2.2,5.1-1.8,10.9,1.1,15.6l1.6,2.5h46.6l1.6-2.5c2.9-4.7,3.4-10.6,1.1-15.6
					L519.9,258z"/>
			</g>
		</g>
		<g>
			<g>
				<path class="st32" d="M454,42l86,42.1c11,5.4,15.1,19,8.9,29.6c-6.2,10.6-20.2,13.5-30.2,6.5L440.4,65c-5.7-4-7.4-11.8-3.8-17.8
					C440.2,41.2,447.7,38.9,454,42z"/>
			</g>
		</g>
		<g>
			<path class="st31" d="M546.2,119.4l-74,73c-8.4,8.4-22.1,8.4-30.5,0c-8.4-8.4-8.4-22.1,0-30.5L515,87.6
				c8.4-8.4,22.4-7.7,30.9,0.7C554.3,96.7,554.6,111,546.2,119.4z"/>
		</g>
		<g>
			
				<ellipse transform="matrix(0.8659 -0.5002 0.5002 0.8659 19.0861 279.1233)" class="st32" cx="530.2" cy="104" rx="21.7" ry="21.7"/>
		</g>
		<g>
			<path class="st32" d="M439,189.1l40.2,60.8c6.6,9.9,19.9,12.7,29.9,6.1c9.9-6.6,12.7-19.9,6.1-29.9l-40.2-60.8
				c-6.6-9.9-19.9-12.7-29.9-6.1C435.1,165.8,432.4,179.1,439,189.1z"/>
		</g>
		<g>
			<circle class="st32" cx="457.1" cy="177.2" r="21.7"/>
		</g>
		<g>
			<circle class="st32" cx="497.1" cy="237.9" r="21.7"/>
		</g>
		<g>
			<path class="st33" d="M428.1,63.5l-1.4,6.4c-2.6,11.8-13,20.2-25.1,20.2c-6.8,0-12.6,4.7-14.1,11.3l-2.9,13.3
				c-0.5,2.5,1.3,4.8,3.9,4.8H425c4.2,0,7.8-2.9,8.7-7l14.1-65.1C438.3,47.6,430.1,54.2,428.1,63.5z"/>
		</g>
		<g>
			<g>
				<path class="st32" d="M396,103.9c-2.5-2.5-6.6-2.5-9.2,0l-10.9,10.9l9.2,9.2L396,113C398.5,110.5,398.5,106.4,396,103.9z"/>
			</g>
			<g>
				<polygon class="st33" points="375.8,114.8 362.9,122.8 359.3,126.5 373.3,140.6 377,136.9 385,124 				"/>
			</g>
			<g>
				<path class="st32" d="M326.8,145c-3.9,3.9-3.1,10.8,1.6,15.5c0,0,36.1-36.1,36.1-36.1c-4.7-4.7-11.7-5.4-15.5-1.6L326.8,145z"/>
			</g>
			<g>
				<path class="st32" d="M372.6,132.1c0,0-14.4,14.4-25,25v15c1.7-0.3,3.2-1.1,4.5-2.3l22.2-22.2
					C378,143.8,377.3,136.8,372.6,132.1z"/>
			</g>
		</g>
		<g>
			<g>
				<circle class="st32" cx="391.3" cy="108.5" r="11.5"/>
			</g>
			<g>
				<circle class="st33" cx="391.3" cy="108.5" r="9.5"/>
			</g>
			<g>
				<circle class="st32" cx="391.3" cy="108.5" r="4.9"/>
			</g>
		</g>
		<g>
			<g>
				<circle class="st31" cx="530.2" cy="104" r="17"/>
			</g>
			<g>
				<circle class="st32" cx="530.2" cy="104" r="13"/>
			</g>
			<g>
				<circle class="st31" cx="530.2" cy="104" r="7.1"/>
			</g>
		</g>
		<g>
			
				<ellipse transform="matrix(2.015710e-02 -0.9998 0.9998 2.015710e-02 384.2966 499.856)" class="st32" cx="447.2" cy="53.9" rx="21.7" ry="21.7"/>
		</g>
		<g>
			<g>
				<circle class="st33" cx="447.2" cy="53.9" r="17"/>
			</g>
			<g>
				
					<ellipse transform="matrix(0.5092 -0.8607 0.8607 0.5092 173.1175 411.2971)" class="st32" cx="447.2" cy="53.9" rx="13" ry="13"/>
			</g>
			<g>
				<circle class="st33" cx="447.2" cy="53.9" r="7.1"/>
			</g>
		</g>
		<g>
			<g>
				<circle class="st31" cx="457.1" cy="177.2" r="17"/>
			</g>
			<g>
				<circle class="st32" cx="457.1" cy="177.2" r="13"/>
			</g>
			<g>
				<circle class="st31" cx="457.1" cy="177.2" r="7.1"/>
			</g>
		</g>
		<g>
			<g>
				<circle class="st31" cx="497.1" cy="237.9" r="17"/>
			</g>
			<g>
				<circle class="st32" cx="497.1" cy="237.9" r="13"/>
			</g>
			<g>
				<circle class="st31" cx="497.1" cy="237.9" r="7.1"/>
			</g>
		</g>
	</g>
</g>
<path class="st0" d="M80.7,327.7C66.6,328,52,329,39.2,334c-6.8,2.6-13.7,7.7-12.3,13.7c1,4.4,6.1,7.4,11.1,9.6
	c24.7,10.9,53.3,14.3,81.3,16.4c30.4,2.2,60.9,3.1,91.4,2.6c6.9-0.1,14.4-0.5,19.6-4.1c19.2-13.5-10.3-29.3-24.3-33.6
	c-23.3-7.1-51.5-8.6-76.2-10.1C113.5,327.5,97.1,327.2,80.7,327.7z"/>
<path class="st0" d="M250.1,352.5c-6.7,0.7-13.5,1.7-19.3,5c-3.1,1.8-6.1,4.9-5.3,8.4c0.6,2.6,3.2,4.1,5.6,5.3
	c12,5.6,25.6,6.7,38.9,7.1c14.4,0.4,25.7,0.2,40-1.1c3.2-0.3,12.4-2.6,14.7-4.9c8.5-8.5-8.6-15.2-15.3-17.3
	c-11.2-3.4-24.5-3.4-36.2-3.5C265.5,351.3,257.8,351.7,250.1,352.5z"/>
<g>
	<g>
		<path class="st34" d="M205.3,155.7c-0.2,0.2,3.1,6.9,8.5,6.1c2.2-0.3,4.6-0.3,6.8-0.9c2-0.5,2.6-2.5,3.3-4.4c0.4-1,0.7-2.1,1-3.2
			c0.3-1,0.8-2.2,0.7-3.3c-0.1-1.5-1.4-1.4-2.2-0.9C218.9,151.3,205.3,155.7,205.3,155.7z"/>
		<path class="st35" d="M225.5,161.5c1.8-3,4.6-9.7,8.7-10.4c1.2-0.2,2.5-0.4,3.7-0.6c4.7-0.6,8.7,0,11.7-4.2
			c2.1-2.9,4.6-4.3,7.1-6.7c1.5-1.4,2.9-3.3,3.9-5.1c0.7-1.3,0.3-2.9-1.1-3.1c-1-0.2-2,0.8-3,0.8c-3.6,0.1-7.3,0.2-10.6,1.8
			c-1.9,0.9-3.5,2.2-5.2,3.3c-1,0.7-3.3,1.9-5.3,2.2c-1.5,0.2-2.1-2-0.7-2.6c1.2-0.5,2.5-0.9,3.7-1.4c1.4-0.7,2.2-1.6,2.8-3.1
			c0.8-1.8,1-6-2.2-3.6c-3.1,2.2-0.7,2-11.3,5.7c-3.6,1.2-6,9.6-7,13.2c-1.4,3.7-4.3,9.8-5.7,13.5
			C214.6,161.7,224.9,162.3,225.5,161.5z"/>
		<path class="st36" d="M228.2,146.3c2.9-1.6,6.1-2.3,9.4-1.8c2.3,0.3,4.7,1.3,7,0.7c2.2-0.6,3.3-2.4,4.5-4.2
			c1.8-2.7,4.3-4.6,7.5-5.4c0.4-0.1,0.3-0.7-0.1-0.6c-2.5,0.6-4.7,1.8-6.4,3.7c-1.7,1.9-2.7,4.9-5.3,5.8c-3,1.1-6.4-0.7-9.4-0.8
			c-2.7,0-5.2,0.7-7.5,2C227.6,145.9,227.8,146.5,228.2,146.3z"/>
		<path class="st36" d="M247.4,140.6c1-1.4,1.9-3,3.2-4.1c1.4-1.2,3.2-1.9,4.8-2.7c0.4-0.2,0.1-0.8-0.3-0.6
			c-1.6,0.9-3.5,1.6-4.9,2.8c-1.4,1.1-2.3,2.8-3.3,4.2C246.6,140.6,247.1,141,247.4,140.6z"/>
		<path class="st36" d="M243.9,139.9c1.5-1.7,3-3.3,4.7-4.8c0.3-0.3-0.1-0.8-0.4-0.5c-1.7,1.5-3.3,3.2-4.8,4.9
			C243.2,139.9,243.7,140.3,243.9,139.9z"/>
		<g>
			<path class="st28" d="M77.3,352.8c-9.4-4.2-26.2-9.7-34.2-15c-0.7-0.5-1.1-1.2-1.5-6.2c-0.3-2.9-0.6-13.4-0.9-19
				c-0.6-10.4-1.2-24-1.8-38.5c-1.2-27.6-2.4-56-3.7-65.1c-0.1-0.7,0.1-1.4,0.6-1.8c1.2-1.2,3.6-0.9,7.4-0.4
				c1.1,0.1,2.7,0.4,3.3,0.3l11.6-6.4c0.4-0.2,0.9-0.3,1.3-0.1c0.4,0.2,0.8,0.5,0.9,0.9l31.2,87c0.1,0.2,0.1,0.5,0.1,0.7l-6.7,58.1
				c0.2,2.2-0.8,4.2-2.5,5.3c-0.8,0.5-1.7,0.8-2.7,0.8C78.8,353.4,78.1,353.1,77.3,352.8z M58,204.3l-10.2,5.6
				c-0.1,0.1-0.2,0.1-0.4,0.1c-0.9,0.2-2.4,0.1-4.6-0.3c-1.2-0.2-3.2-0.4-4.3-0.4c1.3,10,2.5,37.7,3.6,64.5
				c1,24.1,2.2,57.7,3.2,61.5c8.1,5.4,24.4,10.5,33.6,14.7c0.8,0.3,1.4,0.2,1.8-0.1c0.8-0.5,1.2-1.5,1.1-2.6c0-0.1,0-0.2,0-0.3
				l6.7-57.9L58,204.3z"/>
		</g>
		<g>
			<path class="st28" d="M187.7,346.4c-8.9-3.9-26.2-12.7-34.6-17.3c-2.7-1.4-4.7-3.9-5.5-6.8c-4.5-15.6-26.9-94.4-31.4-112.8
				c-0.2-0.7,0-1.4,0.4-1.9c1.1-1.3,3.5-1.3,7.3-1.1c1.2,0,3,0.1,3.5,0c0.4-0.1,0.9-0.1,1.2,0.1c0.4,0.2,0.7,0.6,0.8,1l1,3.7
				l50.3,73c0.1,0.1,0.2,0.3,0.2,0.5l15.1,55.8c0,0,0,0.1,0,0.1c0.4,2.2-0.3,4.4-1.9,5.7c-0.9,0.7-1.3,0.3-2.4,0.3
				C191.1,346.7,188.3,346.7,187.7,346.4z M177.9,285.8l-50.3-73c-0.1-0.1-0.2-0.3-0.2-0.5l-0.7-2.6c-0.8,0-1.8,0-3-0.1
				c-1.2,0-3.2-0.1-4.3,0c4.9,19.8,26.8,96.4,31.2,111.8c0.6,2.1,2,3.9,4,4.9c8.4,4.5,26.9,13.9,35.8,17.8c0.8,0.4,1.5,0,1.8-0.2
				c0.6-0.5,1.1-1.4,0.8-2.6L177.9,285.8z"/>
		</g>
		<path class="st28" d="M130.5,194.8c-1.2-3.1-3.9-5.1-6.9-5.1c-14.7-0.2-58.2,1.2-77,1.8c-4.7,0.2-8.1,5.1-7.1,10.2
			c3.9,19.7,13.3,62.6,16.3,76.1c0.6,2.6,2.2,4.8,4.4,5.8l29,14c1,0.5,2.1,0.7,3.3,0.7l89.1-3c5-0.2,8.5-5.6,7.1-11l-12.5-46.6
			c-0.8-2.9-2.9-5.1-5.5-5.8l-25.1-6.9c-2.3-0.6-4.2-2.4-5.2-4.9L130.5,194.8z"/>
		<path class="st37" d="M165.3,292.6c-1.1-6.8-3.7-13.3-4.8-20.1c-0.3-2.7-0.2-5.3-0.2-8c0.1-2.5,0.2-5.1,0.4-7.6
			c1.4-0.4,2.8-0.7,4.2-0.8c3.6-0.3,7.1-0.2,10.7-1c1.6-0.3,3.2-1,4.8-1.6l8.3,30.8c1.4,5.4-2.1,10.9-7.1,11l-15.8,0.5
			C165.6,294.8,165.5,293.7,165.3,292.6z"/>
		<path class="st7" d="M46.6,191.5c18.8-0.6,62.3-1.9,77-1.8c3,0,5.7,2,6.9,5.1l9.9,25.2c1,2.4,2.9,4.2,5.2,4.9l25.1,6.9
			c2.6,0.7,4.7,2.9,5.5,5.8c0,0,4.6,17.2,6.7,24.9c-8.1,0.6-16.1,1.8-24.1,3.3c-15.7,2.9-31.4,7.3-47.5,7.3
			c-7.5,0-14.7-1.1-21.9-3.3c-2.6-0.8-5.2-1.6-7.9-1.9c-0.3,0-0.5-0.1-0.8-0.1c-0.9-3.3-1.9-6.7-2.8-10c-1.1-4.2-2.1-8.4-3-12.7
			c-0.7-3.6-1.3-7.3-2.2-10.8c-0.8-3-2.3-5.5-4.8-7.3c-3.1-2.3-6.6-4-10-5.7c-3.5-1.7-6.9-3.6-10.1-5.7c-2-1.3-4.1-2.7-6.1-4
			c-0.8-3.7-1.5-7.1-2-9.9C38.5,196.6,42,191.7,46.6,191.5z"/>
		<path class="st38" d="M183.3,215c-1.8,0.9-3.8,1.3-5.8,1.1c-0.3,0-0.8-0.4-1.6-0.9C178.4,215.6,180.9,215.6,183.3,215z"/>
		<path class="st34" d="M129.8,140.4c0,0,11.7,0.8,14.4,1.9c2.8,1.2,5.1,4.1,7.1,6.3c11.8,13.3,22.7,27.4,33.8,41.3
			c2.1,2.6,4.2,5.2,5.4,8.3c1.1,3,0.4,6.9-1.3,10.3c-1.5,2-3.7,3.5-6.7,4.2c-3.8,0.9-7.4,0.2-10.7-1.3c-8-7.3-21.4-21.3-23.3-23.1
			c-11.1-11-13.7-27.4-14.1-42.3C134.4,144.6,129.3,142,129.8,140.4z"/>
		<path class="st7" d="M163,162.4c7.4,9,14.5,18.1,21.8,27.2c-4.3,4.1-7.9,8.9-11.3,13.8c-3.9-2.8-7.8-5.6-11.2-9
			c-1.2-1.1-1.9-2.6-2-4.2c-0.4-5.1-0.8-10.6-0.9-14C159.5,174.6,161.9,164.1,163,162.4z"/>
		<path class="st37" d="M146.5,260.7c-0.4,2.6-26.3,16.4-24.6,18.6c0,0,56.2-4.2,58.9-6.7c1.6-1.5,1.5-4.2,1.7-6.1
			c0.4-2.6,0.7-5.2,1.1-7.8c0.7-5,1.5-10,1.3-15.1c-0.1-4-0.6-8.8-3.4-12.1c-3-3.4-7.9-3.5-12.2-2.5c-7.7,1.8-14.2,6.9-17.5,13.3
			c-0.4-0.1-0.8,0.1-1,0.5c-2,5.3-3.2,10.8-4.1,16.3C146.7,259.7,146.6,260.2,146.5,260.7z"/>
		<path class="st39" d="M55.1,170.3c0.8,2.3,1.7,4.6,2.7,6.9c2.8,6.6,6.6,12.6,8.9,19.5c2.3,6.7,9,11.8,10.7,18.5
			c1.8,7.3,3.7,14.6,6,21.7c1.2,3.7,2.5,7.4,3.9,11c0.7,1.8,1.9,6.3,3.7,7.2c0.7,0.3,1.4,0.2,2.1,0.1c4.1-0.7,2.9,0.7,6.9,0.1
			c10.1-1.6,20.1-3.1,30-5.8c9.8-2.6,19.5-5.6,29.3-8.4c0,0.2,0.1,0.4,0.1,0.7c0.1,0.5,0.8,0.5,0.8,0c0-0.3-0.1-0.6-0.1-0.9
			c0.2-0.2,0.1-0.6-0.1-0.7c-0.5-4.2-1.1-8.3-1.8-12.4c-2.4-14.5-6.2-28.6-11.1-42.3c0.6-6.9,0.9-13.8,1-20.7
			c0-4.2,0.4-8.6-0.4-12.8c-1.6-8.1-8.3-10.1-15-11c-5.6-0.8-11.3-1.3-17-1.6c-5.6-0.3-11.2-0.6-16.8-0.7
			c-8.7-0.1-17.3,0.3-25.9,1.7c-6.4,1-12.9,2.6-16.4,9.1c-1.2,2.3-2.1,4.5-2.6,6.7C52.9,160.8,53.3,165.4,55.1,170.3z"/>
		<path class="st34" d="M149.8,232.4c-5.2-8.8-18.7-41.7-20-44.5c-4.9-10.9-9.4-33.8-14.8-48.5c0.3,0,0.6,0,0.9,0
			c6,0.3,12,0.8,18,1.6c7.1,1,14.2,3,15.8,11c0.8,4.1,0.5,8.6,0.5,12.8c-0.1,6.9-0.4,13.8-1,20.7c5.3,13.7,24.7,65.9,22.7,65.8
			C172,251.3,162,253.2,149.8,232.4z"/>
		<path class="st7" d="M152,216.6c2.5-0.8,5.3-1.6,8-1.8c6.5,17.9,13,36.5,11.8,36.5c0.2,0.1-9.8,2-22-18.8c-1.5-2.5-3.7-7-6-12.2
			C146.4,218.7,149.2,217.5,152,216.6z"/>
		<path class="st35" d="M113,142.7c0,0.1,0.2,1.5-0.2,2.9c-3.5,2.3-7.5,1.4-11.2-0.4c-1.1-0.8-2.1-1.6-3.1-2.4
			c-0.9-0.7-1.8-1.4-2.5-2.3c-1.3-1.4-0.6-3.8-0.5-5.5c0.2-3.3,0.2-6.5,0.1-9.8c-0.2-4.6-0.5-9.3-2.4-13.6
			c-0.2-0.4,21.6,11.1,21.6,11.3c0,0.1,0,0.3,0,0.4c-1.3,2.9-1.4,6.2-1.4,9.3C113.2,136,113.1,139.3,113,142.7z"/>
		<path class="st35" d="M93.9,104.3c1.9,2.8,3.8,5.7,5.4,8.8c1.5,2.8,3.4,5.4,4.9,8.2c0.7,1.3,1.2,2.3,2.4,3.2
			c4.4,3.1,10.8,4.6,16.1,4.6c1.3,0,2.6-0.3,2.8-1.8c0.1-0.9-0.2-1.8-0.1-2.6c0.1-0.8,0.4-1.6,0.7-2.3c0.5-1.2-0.1-2.1-0.6-3.1
			c0.5-0.8,1.2-1.5,1.1-2.6c-0.1-0.7-0.5-1.3-0.9-1.9c0.1,0,0.3-0.1,0.4-0.1c0.8-0.3,1.8-0.5,2.5-0.9c1.3-0.8,1-2.1,0.4-3.3
			c-1.5-3-3.5-5.8-6-8.1c0.4-1.8,0.8-3.6-0.3-5.2c-1.1-1.6-2.3-3.2-3.6-4.6c-3.9-4.1-9.3-6.8-15-6.6C99,85.9,93.2,89.5,92,94.8
			C91.2,98.1,92.1,101.6,93.9,104.3z"/>
		<path class="st40" d="M75.1,110.9c0.6,2.6,2.9,4.2,5,5.5c2.6,1.6,5.3,3.3,7.7,5.3c2.3,2,3.7,4.3,5.2,6.9c0.7,1.2,1.4,2.4,2.1,3.6
			c0.2,0.4,0.9,1.2,0.9,1.6c1.9-1.3,2.4-5.9,2.9-8c0.5-2.3,0.7-4.8,1.5-7c0.8-2.2,0-4.6-0.9-6.7c-0.6-1.3-1.2-2.7-1.5-4.1
			c-0.2-1.3,0.3-2.7,1.8-2.7c1.7,0,2.6,2,3.2,3.4c0,0.1,0.1,0.2,0.1,0.3c0,0.1,0,0.2-0.1,0.3c-0.7,2.3-0.8,4.7-0.8,7
			c0,2.3,0,4.8,0.6,7c0.3,1.1,0.8,1.8,1.9,2.4c6.1,3,12.7,4.8,19.5,5.3c1.4,0.1,3,0,3.3-1.7c0.2-1.2-0.5-2-0.9-3.1
			c-0.4-1.1,0.3-2.6-0.3-3.6c-1-1.7-3.5,2.3-4.3,2.3c-1.1-0.1-3.2-0.6-4.1-0.9c0.2-0.6-0.1-1.2,0.1-1.8c0.4-0.9,1.1-1.5,1.5-2.3
			c0.4-0.9,0.1-1.9,0.5-2.8c0.5-1.5,4.3-0.7,5.5-0.6c0.8,0.1,1.4,0.5,2.1,0.8c0.3,0.1,0.7,0.1,0.9-0.1c0.3-0.3,0.1-0.9-0.2-1.3
			c-0.8-1.3-2.1-2.2-3.6-2.3c-1.6-0.1-4.4-0.1-5.7,1c-1.3,1.1-2,3.3-2.7,4.8c-0.1,0.3-1.3,3.3-0.8,3.5c-2.2-0.8-3.2-3.1-4.5-5
			c-1.5-2.1-2.7-4.4-3.8-6.7c-0.1-0.2-0.2-0.4-0.2-0.7c-0.1-0.7,0.7-1.2,1.1-1.7c1.5-1.9,1.8-4.5,1-6.7c-0.9-2.3-2.8-4.1-3.5-6.4
			c-0.4-1.2-0.9-2.8-0.5-4.2c0.7-2.7,4.9-2.7,7-2.2c0.4,0.1,5.4,1.7,5.4,1.7c0.1-0.5-0.1-1-0.3-1.5c-0.4-0.9-1-1.7-1.7-2.4
			c-4.3-4-12.1-4.5-17.7-3.8c-3.1,0.4-5.4,1.4-6.6,4.4c-0.4,1-2.2,0.1-2.9-0.1c-7.1-1.5-16.4,5.3-11.2,12.8c0.6,0.9,0.5,1.5-0.2,2.3
			C75.1,105,74.4,108.1,75.1,110.9z"/>
		<path class="st40" d="M82.6,116.6c1.1-0.3,2.1-0.9,3-1.7c0.9-0.9,1.8-2.9,3.1-2.9c1.4,0,2.6,1.5,3.8,2.1c1,0.5,2.1,0.9,3.3,1.1
			c1.6,0.3,3.4,0.3,4.9-0.3c0.3,1.3,0.4,2.6-0.1,3.8c-0.8,2.2-1,4.7-1.5,7c-0.5,2.1-1,6.7-2.9,8c0-0.4-0.7-1.2-0.9-1.6
			c-0.7-1.2-1.4-2.4-2.1-3.6c-1.5-2.5-2.9-4.9-5.2-6.9c-2.2-1.9-4.6-3.4-7.1-4.9C81.3,116.8,81.9,116.7,82.6,116.6z"/>
		<path class="st40" d="M115.7,101.6c0.6-0.1,1.2-0.4,1.8-0.5c0.7-0.1,1.5-0.2,2.3-0.1c0.9,0.1,1.8,0.2,2.4-0.5c0.9-1,0.2-2.7-1-3.2
			c-1.9-0.9-4.4,0.4-5.8,1.6c-0.5,0.4-1.3,1.1-1.2,1.9C114.3,101.6,115.1,101.7,115.7,101.6z"/>
		<path class="st41" d="M121,101.7c-0.5,0.1-1.1,0.2-1.6,0.4c0,0,0,0-0.1,0c0,0-0.1,0-0.1,0c-0.6,0.2-1.3,0.6-1.8,1
			c-0.3,0.2-0.5,0.5-0.8,0.7c-0.1,0.1-0.3,0.2-0.5,0.2c-0.2,0-0.4-0.1-0.5-0.3c-0.2-0.3,0-0.4,0.2-0.5c0.2-0.2,0.4-0.4,0.6-0.6
			c0.4-0.4,0.9-0.7,1.4-1c0.9-0.4,2-0.4,3-0.5C121.1,101.2,121.3,101.6,121,101.7z"/>
		<path class="st42" d="M123.7,112.8c1-0.5,2-0.5,3-0.2c0.1,0,0.1,0.2-0.1,0.2c-1-0.3-1.9-0.2-2.8,0.2
			C123.7,113,123.6,112.9,123.7,112.8z"/>
		<path class="st43" d="M82.9,94.7c1.2-0.9,2.7-1.5,4.1-1.8c1.5-0.4,3.1-0.5,4.7-0.4c0.8,0.1,1.5,0.2,2.3,0.3c0.6,0.1,1,0,1.3-0.5
			c0.2-0.3,0.2-0.7,0.3-1c0.3-1.2,0.6-2.5,1.5-3.5c0.9-1,2.2-1.5,3.5-1.7c1.3-0.2,2.7-0.3,4-0.2c3,0.3,5.9,1.6,8.2,3.6
			c-0.2-0.1-0.4-0.1-0.5-0.1c-1.9-1.6-4.3-2.7-6.8-3.1c-1.3-0.2-2.7-0.3-4.1-0.1c-1.4,0.2-2.9,0.5-3.9,1.6c-0.9,1-1.3,2.3-1.6,3.6
			c-0.2,0.9-0.4,1.9-1.6,1.8c-0.8-0.1-1.6-0.3-2.4-0.3c-0.8-0.1-1.6-0.1-2.3,0c-1.5,0.1-3,0.5-4.4,1.1c-1.6,0.6-3,1.6-3.6,3.2
			c-0.5,1.4-0.4,3.1-0.1,4.5c0,0.1-0.2,0.2-0.2,0.1C80.6,99.1,80.7,96.4,82.9,94.7z"/>
		<path class="st43" d="M92.4,111.1c0,0.1-0.2,0.1-0.2,0c0.3-3.9,4.2-5.8,7.6-6.2c0.2,0,0.4,0,0.6-0.1c0.4-0.2,0.3-0.6,0.2-0.9
			c0-0.6,0-1.1,0-1.7c0-1,0.1-1.9,0.2-2.9c0.3-1.8,0.9-3.5,2.1-4.9c0.6-0.7,1.3-1.3,2-1.8c0,0.1,0,0.1,0,0.2c-2.2,1.3-3.5,4-3.9,6.6
			c-0.2,1-0.2,2-0.2,3c0,0.5,0,0.9,0,1.4c0,0.3,0.1,0.7-0.1,1c-0.1,0.2-0.3,0.2-0.5,0.2c-0.5,0.1-1.1,0.1-1.6,0.2
			c-1,0.2-1.9,0.5-2.8,1C94.1,107.2,92.6,109,92.4,111.1z"/>
		<path class="st39" d="M277.4,299.5c2.9-1.7,5.4-4,7.2-6.7c0.7-0.2,1.1-1.2,0.3-2c-4.8-4.6-9.3-9.4-13.6-14.5
			c-0.2-0.3-0.5-0.4-0.7-0.5c-0.4-0.3-0.8-0.4-1.3-0.1c-3.2,1.9-6,4.2-8.7,6.7c-0.6,0.5-5.4,0.5-1.5,1.6
			c4.6,5.5,11.3,10.9,16.2,16.2C276.3,301.2,277.8,300.5,277.4,299.5z"/>
		<path class="st35" d="M96.1,107.9c0.6,1.1,1.3,2.2,2,3.3c0.7,1,1.5,2.6,2.8,2.9c1.7,0.3,2.4-1.5,2.8-2.8c0.2-0.6,0.3-1.2,0.3-1.8
			c-0.1-2.5-2.4-5.7-4.9-6.4c-1.1-0.3-2.4-0.1-3.2,0.8C94.9,105,95.5,106.7,96.1,107.9z"/>
		<path class="st44" d="M110.8,146.1c1.5,5.9,2.7,11.9,3.7,17.9c1,5.9,1.7,11.8,2.6,17.7c0.9,5.8,2.1,11.6,4.1,17.2
			c1.9,5.6,4.3,11.1,6.2,16.8c2.1,6.3,3.9,12.8,5.3,19.3c0,0.1-0.2,0.2-0.2,0.1c-1.3-5.8-2.8-11.6-4.7-17.3
			c-1.9-5.7-4.2-11.2-6.2-16.9c-2-5.6-3.4-11.3-4.4-17.1c-1-5.8-1.7-11.7-2.6-17.5c-1.1-6.7-2.4-13.4-4-20
			C110.5,146,110.7,145.9,110.8,146.1z"/>
		<path class="st34" d="M231,154.4c0.6-0.1,1.1,0.6,0.9,1.2c-1.9,4-25.3,54.8-39.7,54.1c-6.5-0.3-23.3-2.2-24.4-5.6
			c2.9-5.9,19.4-24.7,25.1-31.9c0.1-0.1-0.5-0.5-1-0.8c-0.4-0.2-0.4-0.8-0.2-1c2-2.1,13.2-14.4,13.5-14.7
			C206.1,155,225.7,155.1,231,154.4z"/>
		<path class="st7" d="M180.5,206.2c3.3-1.3,6.8-2.1,10.4-2.6c-0.3,1.7-0.9,3.4-1.7,5c-1.5,2-3.7,3.5-6.7,4.2
			c-3.8,0.9-7.4,0.2-10.7-1.3c-0.5-0.4-1-0.9-1.5-1.4C173.8,209.4,177.2,207.4,180.5,206.2z"/>
		<path class="st7" d="M180.5,206.2c6.9-3.3,18.4-2.8,22.1-3.3c-2,2.3-5.7,4.1-6.4,5.2c-2.7,4.6-19.1,5.2-21.7,4.5
			c-0.5-0.9-1-2-1.5-3.3C175.6,208.4,178.1,207.3,180.5,206.2z"/>
		<path class="st42" d="M97.5,104.2c1.5,0.3,3.4,1.3,4,2.8c0.3,0.7,0.1,1.4-0.4,1.9c-0.3,0.3-0.7,0.6-0.8,1.1
			c-0.2,0.6,0.2,1.2,0.5,1.7c0.1,0.1-0.1,0.3-0.1,0.1c-0.4-0.5-0.7-1.1-0.6-1.7c0.1-0.8,0.8-1.1,1.2-1.7c0.6-1.1-0.3-2.2-1.2-2.8
			c-0.8-0.6-1.7-1-2.6-1.2C97.3,104.4,97.4,104.2,97.5,104.2z"/>
		<path class="st34" d="M92.6,253.4c2.8,9.4-0.8,23.8,4.2,25.1c11,2.9,32.6,0.6,41.6-1.7c9.7-2.4,14.1-7.3,23-11.7
			c10.3-5.1,22.1-14,34.2-11.9c11.2,2,16.1,12.2,24.7,18.3c2.1,1.5,4.4,2.7,6.6,4c4.5,2.6,8.8,5.5,13,8.5c2.3,1.6,4.5,3.3,6.7,5
			c2.1,1.6,5.5-0.3,7.8-0.7c2.9-0.4,5.8-0.7,8.5-1.6c4.9-1.6,9.6-3.5,14.4-5.2c0,0,0,0,0,0c-1.7-2.4-3.7-4.6-5.6-6.9
			c-14.1-17-28.2-33.8-44.1-49.1c-7.2-6.9-14.8-15.3-24.6-18.3c-6.4-2-12.9-0.7-19.2,1.1c-12.3,3.6-48.6,17.4-68.9,32.3
			C105.5,241.5,92.2,252,92.6,253.4z"/>
		<path class="st7" d="M105.1,260.2c12.7-4.1,25.2-9.1,37.2-15.1c11.2-5.5,22.2-12.4,34.6-14.8c10.1-2,21.6-0.8,29.6,6.1
			c4.6,4,7.7,9.5,11.8,14c4.4,4.7,9.5,8.7,14.3,13c8.5,7.7,16.5,15.9,23.9,24.6c-0.1,0-0.2,0-0.2,0c-6.3-7.3-13-14.4-20-21
			c-4.7-4.4-9.6-8.5-14.3-12.8c-2.3-2.1-4.5-4.4-6.5-6.8c-1.9-2.3-3.6-4.8-5.5-7.1c-3.6-4.4-8.2-7.6-13.7-9.2
			c-5.2-1.6-10.7-1.8-16-1.2c-12.5,1.5-23.6,8-34.6,13.6c-11.6,5.9-23.6,11-36,15.2c-1.5,0.5-3.1,1-4.7,1.5
			C105,260.4,104.9,260.2,105.1,260.2z"/>
		<path class="st7" d="M115,240.6c0.7,3-1.5,13-1.8,14.7c-0.3,1.7-0.6,3.4-0.9,5.1c-0.3,1.6-0.5,3.2-0.5,4.8c0,0.7,0.1,1.5,0.2,2.2
			c0.1,0.5,0.1,1,0.2,1.5c0.2,0.6,0.5,1.1,1.1,1.2c0.8,0.2,1.8,0,2.6-0.1c1.8-0.3,3.5-0.5,5.2-1c9.4-2.9,18.7-1.5,28.3-3.1
			c3.8-0.6,7.6-1.2,11.5-1.7c1.1-0.2,2.2-0.3,3.3-0.5c-1,0.5-1.9,1-2.8,1.5c-9,4.4-13.3,9.3-23,11.7c-9,2.3-30.6,4.5-41.6,1.7
			c-5-1.3-1.4-15.7-4.2-25.1C92.3,252.1,105.6,241.2,115,240.6z"/>
		<path class="st42" d="M98.2,106.9c0.2-0.7,0.7-0.9,1.3-1.2c0.1-0.1,0.2,0.1,0.1,0.2c-0.5,0.3-1.1,0.5-1.2,1.1
			c-0.1,0.6,0.2,1.2,0.5,1.7c0.1,0.1-0.1,0.2-0.2,0.1C98.4,108.2,98,107.5,98.2,106.9z"/>
		<path class="st34" d="M51.8,170.3c0.9,2.3,1.8,4.6,2.9,6.9c3,6.6,4.3,11.5,6.4,18.5c0.4,1.5,13.7,30.7,15.3,38.2
			c1.2,5.7,0.7,12.1,0.8,18c0.1,4.4,0.2,8.9,0.6,13.4c0.2,2.6-0.4,7.5,1.7,9.3c0.8,0.7,13.7,7,21.7,7.2c0.3,0,0.7-0.2,0.7-0.5
			c2.1-13.6,10.4-26.7,10.1-41.5c-0.4-19.1-4.8-38.9-5.3-48.5c-0.4-8.2-7.1-44.3-10.4-52.5c-8.6-0.1-36.9,0-40.3,6.6
			c-1.2,2.3-4.9,8.7-5.4,10.9C49.5,160.8,49.9,165.4,51.8,170.3z"/>
		<path class="st7" d="M59.9,170.5c2.4-1.7,5.1-3.4,8-4.1c1.5-0.3,3-0.3,3.9,1.2c0.7,1.3-0.1,2-0.1,3.5c0.1,4.5,0.2,10-0.7,14.4
			c-1,4.4-2.1,8.8-3.4,13.1c-0.7,2.3-1.5,4.5-2.3,6.7c-2.2-5.2-3.9-9-4.1-9.6c-2.1-7-3.4-11.9-6.4-18.5c-0.3-0.6-0.5-1.2-0.8-1.7
			C55.7,173.5,57.8,171.9,59.9,170.5z"/>
		<path class="st7" d="M91.8,267.7c-0.3,1.2-1.6,1.8-2.8,1.4c0,0,0,0,0,0c-3.9-1.6-6.4-5.6-8.5-9.1c-1.1-1.8-2.5-2.6-3.5-4.5
			c0-0.9,0.4-2.8,0.3-3.7c-0.2-5.8,0.4-12.2-0.8-18c-0.5-2.4-2.2-7-4.3-12.2c0.2,0.1,0.4,0.2,0.6,0.4c2.1,1.3,4.2,2.7,6.2,4.2
			c4.3,3.1,7.4,7.3,9.8,12c1.3,2.4,2.9,4.6,4.5,6.9c1.5,2.3,4.4,4,4.5,6.9c0,2.8-2.5,6.2-3.7,8.6C93.7,261.3,92.7,264.6,91.8,267.7z
			"/>
		<path class="st7" d="M98.4,145.4c5.5,15.4,11.5,63.1,12.1,74.1c-3.9-9.8-10-20.9-14.3-30.5C93.4,183,81.4,152,80.5,149
			c-0.5-1.5-0.6-2.9,0.4-4.2c1.1-1.5,3.2-2.5,4.7-3.5c1.6-1.1,6.9-3.8,7.8-4.2c0.9-0.4,1.5-1,2.1-0.2
			C97.2,139.3,96.9,142.9,98.4,145.4z"/>
		<path class="st7" d="M131.6,147.6c2.5,5.7,6.1,41,6.8,47.2c0.7,6.2,1.4,12.4,2.3,18.6c-5.1-11.5-10.2-23.8-10.9-25.5
			c-4.9-10.9-9.4-33.8-14.8-48.5c0.3,0-0.6-0.7-0.3-0.7c0.2,0-1.4-1.6-1-1.7c0.6-0.2,0.1-0.6,0.6-0.2
			C117.9,139,130.4,145,131.6,147.6z"/>
		<path class="st17" d="M92.6,138.8c1.3,8.3,13.6,21.3,14.2,20.1c0.2-0.5,2.9-10.3,3.1-11.3c0-0.1,0-0.2,0.1-0.4
			c0.2-0.7,1.1-0.8,1.5-0.2c1.6,2.6,5.7,9.5,6.3,10.1c0.5,0.5,2-14.2-0.7-18.1c-0.9-1.3-2.6-3-3.9-3.9c0.2,0.2-0.7,6.9-1.3,8.2
			c-0.4,0.8-1.4,1.1-2.3,1.2c-1.1,0.1-2.3-0.1-3.4-0.5c-3.5-1.3-10.9-9.3-10.9-9.3C95.3,134.8,92.5,137.7,92.6,138.8z"/>
		<path class="st34" d="M33.1,216.3c1.2,1.8,4.8,0.3,6.4-0.4c3.1-1.4,5.8-3.4,8.3-5.6c4.9-4.4,9.2-10.2,12.9-15.9
			c4.7-7.3,7.8-8.6,10.7-16.3c1-2.8,5.1-3.7,5.1-6.8c0-3.3-0.7-6.8-1.3-10c-1.2-6.7-3.1-21-3.5-21c-3.5,0.2-9.1,1.8-12.3,2.6
			c-7.5,2-31.6,49.6-33.2,52.9c-1.3,2.9-2.7,5.9-2.8,9.2C23.3,210.7,28.2,214.2,33.1,216.3z"/>
		<path class="st39" d="M168,357.2c3.6,1,7.4,1.4,11.1,1c0.7,0.4,1.8,0,1.9-1c0.4-6.3,1.2-12.6,2.5-18.8c0.1-0.3,0-0.6-0.1-0.8
			c-0.1-0.4-0.3-0.8-0.9-1c-4-1-8.1-1.7-12.2-2.1c-0.9-0.1-1.2,0.7-1.1,1.4c-1.3,6.7-2.4,13.5-3.4,20.3
			C165.7,357.5,167.4,358.1,168,357.2z"/>
		<path class="st28" d="M87.5,291.6L76,233.9c-0.6-2.8-2.5-5.2-5.1-6.3L42,215.5l10.2,45.9L87.5,291.6z"/>
		<path class="st37" d="M77.8,248.5c-1.7-0.9-3.5-1.2-5.3-1.7c-1.9-0.5-3.6-1.4-5.2-2.7c-1.4-1.1-2.7-2.4-4.2-3.4
			c-1.6-1.1-3.3-1.9-5.2-2.6c-1.8-0.7-3.5-1.4-5.1-2.6c-1.4-1.1-2.7-2.3-4-3.6c-1.3-1.3-2.7-2.6-4.1-3.7L42,215.5l28.9,12.1
			c2.7,1.1,4.6,3.5,5.1,6.3l3.1,15.3C78.7,249,78.3,248.8,77.8,248.5z"/>
		<path class="st7" d="M66.3,187c1.1-1.5,2.2-3.1,3.1-4.7c1-1.8,1.7-3.7,2-5.8c1.5-8.8-2.7-17.2-7.4-24.4c-1.9-3-3.9-5.9-5.9-8.9
			c0.1,0,0.1-0.1,0.2-0.1c1.7,2.6,3.5,5.2,5.2,7.8c2.4,3.6,4.7,7.4,6.3,11.5c1.5,3.9,2.4,8.1,2,12.3c-0.2,2.1-0.7,4.1-1.5,6
			c-0.7,1.7-1.7,3.2-2.8,4.7c-2.4,3.4-5.1,6.6-6.4,10.6c-0.1-0.1-0.1-0.2-0.1-0.3C62.2,192.5,64.3,189.8,66.3,187z"/>
		<path class="st7" d="M145.2,161.8c0.6-3.5,1-7.1,1-10.7c0-2.7-0.3-5.5-0.9-8.1c0.1,0.1,0.2,0.1,0.2,0.2c1.2,5.5,0.9,11.1,0.1,16.7
			c-0.3,1.7-0.6,3.5-0.9,5.2c-0.4,1.8-1,3.7-1,5.5c0,1.9,0.9,3.7,1.6,5.4c0.7,1.8,1.4,3.5,2.2,5.3c1.5,3.6,2.9,7.2,4.4,10.8
			c-0.1-0.1-0.3-0.3-0.4-0.4c-1.2-3-2.4-6-3.6-9c-0.7-1.8-1.4-3.5-2.2-5.3c-0.7-1.7-1.6-3.4-2-5.2c-0.4-1.7,0-3.4,0.4-5.1
			C144.6,165.3,144.9,163.5,145.2,161.8z"/>
		<path class="st7" d="M147.9,182.6c-0.7-1.8-1.4-3.5-2.2-5.3c-0.7-1.7-1.6-3.4-2-5.2c-0.4-1.7,0-3.4,0.4-5.1c0.4-1.7,0.7-3.4,1-5.2
			c0.6-3.5,1-7.1,1-10.7c0-2-0.1-4-0.4-5.9c0.1,0.1,0.2,0.1,0.2,0.2c0.7,4.7,0.4,9.6-0.3,14.4c-0.3,1.7-0.6,3.5-0.9,5.2
			c-0.4,1.8-1,3.7-1,5.5c0,1.9,0.9,3.7,1.6,5.4c0.7,1.8,1.4,3.5,2.2,5.3c0.5,1.3,1.1,2.6,1.6,3.9c0,0.1,0,0.3,0,0.4
			c0.2,0.5,0.4,0.9,0.6,1.5C149.1,185.5,148.5,184,147.9,182.6z"/>
		<path class="st35" d="M83.3,203.2c0.1-0.1,10.7-0.6,14.2-0.3c-0.8,1.1-1.3,2.4-1.7,3.5c-0.8,2.2-1.6,4.4-2,6.7
			c-2.8,0.7-13.7,2.6-15.3,3.3C79.1,214.8,80.1,203.6,83.3,203.2z"/>
		<path class="st35" d="M110.7,221.5c0.5-1.1,3.4-1.7,4-2.6c0.5-0.7-0.4-4.5-0.4-4.5c-0.6-0.7-2.2-0.5-2.9-0.3c-3,1-12.5,0.6-17.6-1
			c-1.1-2,1-3.2,0.1-5.3c-0.5-1.2,0.5-3.5,0.6-4.9c3.4-0.2,22-1.5,24.5-0.9c2.7,0.6,3.6,3.6,4.7,5.8c2.1,2.5,4.6,4.7,7.4,6.5
			c0.7,0.4,0.9,1.4,0.2,1.9c-1.2,0.9-2.4,1-3.6,0.7c1,0.2-1.7,3.9-2.3,4.1c-0.5,0.2-2.6,0.2-3.1,0.3c-2,0.7-8,2.5-9.6,2.6
			C110.6,224.1,109.8,223.5,110.7,221.5z"/>
		<path class="st34" d="M165.4,340.2c5.3,3,9.9,1.6,16.3,4c4,1.6,10.7,4.9,14.7,1.9c0.7-0.5,1.9-7.3,2.5-9.9c1-5.1,2-10.2,2.9-15.3
			c1.8-10.1,3.4-20.3,4.7-30.4c0.7-5.2,1.3-10.4,1.8-15.6c0.5-4.5,1.2-9.2,0.3-13.7c-1.4-6.9-8.4-12.9-15-14.6
			c-8-2-17.8,2.6-20.4,10.7c-1.9,5.9-2.9,13.1-3.1,19.2c-0.2,6.6-0.8,13.2-1.6,19.8C168,299.9,165.2,340.1,165.4,340.2z"/>
		<path class="st7" d="M172.6,258.5c2.6-7.1,9.5-12,17.1-11.9c1.6,0,3.2,0.2,4.7,0.7c-0.3-0.2-0.6-0.4-0.9-0.6c0,0,0.1,0,0.1,0
			c6.6,1.7,13.6,7.7,15,14.6c0.9,4.5,0.1,9.2-0.3,13.7c-0.4,3.9-0.8,7.8-1.3,11.6c-0.3-1-0.6-1.9-1-2.9c-0.7-1.7-1.5-3.3-2.3-4.9
			c-1.5-3.2-2.9-6.6-2.9-10.2c0-3.4,1-6.7,0.8-10c-0.3-4.7-3.2-8.2-6.7-11c-3.3-1-6.9-1.1-10.2-0.1c-3.5,1-6.5,3.1-8.8,5.8
			c-1.3,1.6-2.3,3.3-3,5.3C172.7,258.6,172.5,258.6,172.6,258.5z"/>
		<path class="st34" d="M24.1,211c-0.3-2-0.5-4.1-0.6-5.9c-0.1-2,2.5-2,2.7-2.1c4.7-1.3,9.5-2.4,14.4-2.4c4.8,0,32.7-1.5,41.9-1.6
			c3.2-0.1,6.4,0.1,9.5,0.8c0.1,0-1.5,20.9-2.5,21.6c-1.1,0.8-4.6,0.3-5.9,0.4c-1.6,0.1-3.2,0.1-4.7,0.1c-0.4,0-0.8-0.3-0.8-0.8
			c0-0.5,0-1.1,0-0.9c-7.3,0.3-13.2,0.9-21.6,2.1c-8.6,1.2-18.5,4-26.6-0.7c-0.2-0.1-0.4-0.3-0.7-0.4C25.9,219,24.7,214.7,24.1,211z
			"/>
		<path class="st45" d="M213.6,366.6c-0.5,0.1-1,0.1-1.6,0.2c-2,0.3-4,0.5-6,0.6c-3.7,0.2-7.5,0-11.2-0.4c-3.5-0.4-7.1-0.8-10.5-1.6
			c-1.8-0.5-3.6-1.2-5.4-1.8c-1.9-0.6-3.5-0.4-5.3,0.3c-3.3,1.2-6.8,1.7-10.3,0.9c-0.2,0-0.3-0.1-0.5-0.1c-0.5-2.5-0.5-5-0.2-7.5
			c0.1-0.7,0.4-4.4,1.1-6.2c0.3-0.7,0.7-1.1,1.2-0.8c3.9,2.2,8.6,3.8,12.9,1.9c0.7-1.6,1.8-3.1,3.1-4.2c1-0.8,2.2-0.5,3.2,0.1
			c1.3,0.7,9.7,6.1,12.7,7.4c3.2,1.4,6.4,2.7,9.7,3.8c2.5,0.8,5.2,1.2,7.5,2.7c0.5,0.3,1.4,1.8,1.4,1.8c0.5,0.2,0.6,1.2,0.6,2
			C215.2,365.9,214.4,366.2,213.6,366.6z"/>
		<path class="st46" d="M172.6,362.2c1.9,0,4.2-0.8,6.1-0.5c1.7,0.3,3.4,1.8,5.1,2.2c1.7,0.3,18.5,2.1,22.3,1.8
			c1.7-0.1,7.3-0.8,9.5-2c0.2-0.1,0.5,0.1,0.5,0.4c0.1,0.9,0.4,2.7,0,3c0,0-5.7,0.9-7.9,1.1c-11.6,1.2-27.7-1.5-28.1-1.8
			c-0.7-0.7-2.1-2.5-2.9-2.8c-0.4-0.1-0.9,0.2-0.8,0.6c0,0.6,0.1,1.4-0.1,1.7c0,0,0,0,0,0c-0.2,0.4-11.7,1-13.9,0
			c-0.2-0.1-0.3-0.3-0.3-0.6c0-0.5,0-1.8-0.1-2.8c0-0.4,0.3-0.7,0.7-0.7C165.9,362.2,169.3,362.2,172.6,362.2z"/>
		<path class="st7" d="M27.9,207.1c4.4-4.7,11-6.1,17.2-6.5c1.9-0.1,3.7-0.1,5.6-0.2c0.1,0,0.1,0.2,0,0.2
			c-7.9,0.1-16.9,0.5-22.7,6.6C28,207.3,27.8,207.2,27.9,207.1z"/>
		<path class="st7" d="M34.7,189.7c6.1,1.6,11.6,5.2,15.5,10.1c0.1,0.1-0.1,0.3-0.1,0.1c-3.9-4.9-9.4-8.5-15.4-10.1
			C34.6,189.9,34.6,189.7,34.7,189.7z"/>
		<path class="st7" d="M68.4,199.2c3.7-0.3,7.5-0.4,11.2-0.4c1.8,0,3.7,0,5.5,0.1c1.8,0,3.6,0,5.3,0.2c0.5,0.1,1.5,0.1,1.7,0.7
			c0.2,0.6-0.2,1.2-0.2,1.9c0,0.1-0.2,0.1-0.2,0c-0.1-0.5,0.3-1,0.2-1.6c-0.1-0.9-1.7-0.9-2.4-0.9c-1.7-0.1-3.4-0.1-5.1-0.1
			c-3.4-0.1-6.9-0.1-10.3,0c-1.9,0.1-3.9,0.2-5.8,0.4C68.2,199.4,68.2,199.2,68.4,199.2z"/>
		<path class="st42" d="M127.5,216.8c0-1.4-0.9-2.8-1.5-4c-0.7-1.3-1.4-2.5-2.1-3.6c-0.1-0.1,0.1-0.2,0.2-0.1c0.9,1.3,1.7,2.7,2.4,4
			c0.6,1.1,1.3,2.4,1.3,3.7C127.8,216.9,127.5,216.9,127.5,216.8z"/>
		<path class="st42" d="M119.6,207.7c-0.7-1.7-2.3-2.8-4.1-2.9c-0.2,0-0.2-0.2,0-0.2c1.9,0,3.7,1.2,4.4,3.1
			C119.9,207.8,119.7,207.8,119.6,207.7z"/>
		<path class="st42" d="M115.8,211.5c-0.8-1.1-2-1.8-3.3-2c-0.2,0-0.1-0.3,0.1-0.2c1.4,0.3,2.6,1,3.4,2.1
			C116.1,211.5,115.9,211.6,115.8,211.5z"/>
		<path class="st42" d="M124.9,220.2c1.3-1.6,0.2-3.8-0.6-5.4c-0.7-1.6-1.6-3.2-2.5-4.7c-0.1-0.1,0.1-0.3,0.2-0.1
			c1.1,1.8,2.1,3.6,2.9,5.5c0.7,1.5,1.4,3.4,0.2,4.9C125,220.4,124.8,220.3,124.9,220.2z"/>
		<path class="st42" d="M122.2,221.3c1-1.3-0.1-3.4-0.7-4.7c-0.6-1.4-1.3-2.7-2.2-4c-0.1-0.1,0.1-0.2,0.2-0.1c1,1.5,1.8,3.1,2.5,4.8
			c0.5,1.3,1.3,3,0.3,4.2C122.3,221.5,122.1,221.4,122.2,221.3z"/>
		<path class="st42" d="M117.7,222.4c0.7-0.4,1.2-0.9,1.1-1.8c-0.1-0.6-0.2-1.3-0.3-1.9c-0.2-1.2-0.6-2.4-1-3.6
			c-0.1-0.1,0.2-0.2,0.2-0.1c0.6,1.5,1,3.1,1.2,4.7c0.1,0.6,0.3,1.3,0,1.8c-0.2,0.5-0.7,0.8-1.2,1
			C117.7,222.7,117.6,222.5,117.7,222.4z"/>
		<path class="st7" d="M189.1,243.3c7.9,2.2,15.9,4.5,23.1,8.6c3.7,2.1,7,4.9,10.8,6.8c2,1,4.1,1.8,6.1,2.6c2,0.8,3.9,1.6,5.9,2.5
			c4.5,2,8.9,4.2,13,6.7c0.1,0.1,0,0.3-0.1,0.2c-3.7-2.3-7.6-4.2-11.5-6c-3.9-1.8-8-3.3-12-5c-3.9-1.8-7.2-4.4-10.9-6.7
			c-3.5-2.2-7.3-3.9-11.2-5.3c-4.4-1.6-8.9-2.9-13.4-4.1C189,243.5,189,243.2,189.1,243.3z"/>
		<path class="st7" d="M228.6,264.1c3.8,1.4,7.1,3.7,10.5,5.9c1.7,1.1,3.5,2.2,5.3,3c2.1,1,4.3,1.7,6.5,2.5c2.6,0.9,5.1,1.8,7.7,2.7
			c0.1,0,0.1,0.2-0.1,0.2c-2.3-0.8-4.5-1.6-6.8-2.4c-2.1-0.8-4.3-1.5-6.4-2.4c-3.7-1.6-7.1-4.1-10.5-6.2c-2-1.2-4.1-2.4-6.2-3.2
			C228.4,264.3,228.5,264.1,228.6,264.1z"/>
		<path class="st7" d="M172.7,272.4c0-0.1,0.2-0.1,0.2,0c-0.6,8.9-1.2,18.1,0.7,26.9c0.9,4.4,2.6,8.6,4,12.8c1.5,4.3,2.7,8.6,3.9,13
			c1.3,4.9,2.3,9.9,3.1,15c0,0.1-0.2,0.2-0.2,0.1c-1.5-9-3.7-17.9-6.5-26.5c-1.4-4.3-3.1-8.5-4.2-12.9c-1-4.3-1.5-8.7-1.6-13.1
			C172.1,282.5,172.4,277.4,172.7,272.4z"/>
		<path class="st7" d="M172.2,302.2c1.1,7.2,2.3,14.4,3.8,21.5c0.4,2,0.8,4,1.3,6.1c0,0.1-0.2,0.2-0.2,0.1
			c-1.6-7.1-2.9-14.3-4.1-21.5c-0.3-2-0.6-4.1-0.9-6.1C172,302.2,172.2,302.1,172.2,302.2z"/>
		<path class="st46" d="M104.5,244c0.1-0.2,0.3-0.3,0.5-0.3c0.2-0.1,0.4-0.1,0.6-0.1c0.4,0,0.8,0.2,1.1,0.5c0.3,0.3,0.5,0.7,0.5,1.1
			v0.2c0,0.4-0.2,0.8-0.5,1.1c-0.1,0.2-0.3,0.3-0.5,0.3c-0.2,0.1-0.4,0.1-0.6,0.1c-0.4,0-0.8-0.2-1.1-0.5c-0.3-0.3-0.5-0.7-0.5-1.1
			v-0.2C104.1,244.8,104.2,244.3,104.5,244z"/>
		<path class="st45" d="M266.2,294.7c0.1-0.8,0.4-1.3,1-1.1c4.4,1.3,9.5,1.7,13.3-1.3c0.3-1.7,1-3.5,2.1-4.9c0.8-1.1,2.1-1,3.3-0.7
			c1.5,0.4,11.1,3.7,14.4,4.3c3.5,0.6,7,1.2,10.5,1.5c2.7,0.2,5.5,0,8.1,0.9c0.6,0.2,1.8,1.5,1.8,1.5c0.9,0.1,1.3,2.7,0.9,2.8
			c-0.1,0-4.9,2.8-7.1,3.6c-11.5,4-24.7,3.7-27.7,4.4c-0.3,0.1-0.7,0-1-0.2c-1.3-0.8-3.7-1.9-4.1-1c0,0,0.6,1.7,0.5,2.3c0,0,0,0,0,0
			c-0.1,0.5-12.4,4.4-13.1,3.1c-1.4-2.7-2.2-5.7-2.6-8.7C266.5,300.4,265.9,296.6,266.2,294.7z"/>
		<path class="st46" d="M277.7,303.8c1.9-0.5,4-1.8,6-1.9c1.8-0.1,3.8,1,5.6,0.9c1.8-0.1,18.9-2.4,22.6-3.5c1.7-0.5,7-2.6,9-4.3
			c0.2-0.2,0.5,0,0.6,0.2c0.3,0.8,1,2.6,0.7,3c0,0.1-5.5,2.3-7.6,3c-11.3,4-28,5.2-28.4,5c-0.9-0.5-2.7-2-3.6-2.1
			c-0.5,0-0.8,0.4-0.7,0.8c0.2,0.6,0.4,1.4,0.4,1.7c0,0,0,0,0,0c-0.1,0.5-8.5,4.2-13.8,3.4c-0.2,0-0.4-0.2-0.5-0.5
			c-0.1-0.5-0.4-1.8-0.7-2.8c-0.1-0.4,0.1-0.7,0.5-0.8C271.1,305.4,274.4,304.5,277.7,303.8z"/>
		<path class="st46" d="M177.9,352C177.9,352,177.9,351.9,177.9,352c2.6,2.2,5.3,4.2,8.2,5.9c0.8,0.5,1.6,1,2.5,1.4
			c1,0.5,1.9,0.9,3,0.5c1.6-0.6,3-1.8,4.4-2.8c0.6-0.4,1.2-0.9,1.9-1.3c0.1,0,0.2,0.1,0.2,0.1c-0.7,0.4-1.3,0.8-1.9,1.3
			c-1.4,1-2.8,2.2-4.4,2.8c-1.8,0.7-3.5-0.4-5-1.3c-1.7-1-3.3-2.1-4.9-3.2c-1.4-1-2.8-2.1-4.2-3.3C177.8,352,177.8,352,177.9,352z"
			/>
		<path class="st46" d="M280.3,292.5c0.1-0.1,0.2-0.1,0.2-0.2c3.5,0.8,7,1.4,10.5,1.8c1.7,0.2,3.5,0.5,5.2,0.1
			c1.6-0.4,2.8-1.6,4.2-2.6c0.2-0.1,0.4-0.3,0.6-0.4c0.1,0,0.2,0,0.3,0.1c-0.2,0.2-0.5,0.3-0.7,0.5c-1.3,0.9-2.5,2-4,2.6
			c-1.5,0.5-3.2,0.3-4.7,0.1c-1.9-0.2-3.9-0.4-5.8-0.7C284.1,293.3,282.2,293,280.3,292.5z"/>
		<path class="st7" d="M78.1,219.8c-0.2-6.6,0.2-13.2,1.3-19.8c0-0.1,0.2-0.1,0.2,0c-1,6.5-1.4,13.1-1.3,19.7
			C78.3,220,78.1,220,78.1,219.8z"/>
		<path class="st46" d="M83.7,217.2C83.8,217.1,83.8,217.1,83.7,217.2c0.1-0.5,0.3-0.9,0.7-1.1c0.2-0.1,0.4-0.2,0.6-0.2
			c0.2-0.1,0.4-0.1,0.6,0c0.4,0.1,0.8,0.3,1,0.7c0.2,0.4,0.3,0.8,0.2,1.2l0,0.1c-0.1,0.4-0.3,0.8-0.7,1c-0.2,0.1-0.4,0.2-0.6,0.2
			c-0.2,0.1-0.4,0.1-0.6,0c-0.4-0.1-0.8-0.3-1-0.7C83.8,218,83.7,217.6,83.7,217.2z"/>
		<path class="st7" d="M194.4,171.9c2,0.5,4,0.4,5.9,0.1c2-0.3,4-0.6,6-1c4-0.7,8-1.6,11.9-2.7c2.3-0.6,4.5-1.3,6.7-2
			c0.2-0.1,0.2,0.2,0.1,0.3c-7.9,2.6-16.1,4.6-24.4,5.7c-2,0.3-4.1,0.3-6.1-0.1C194.2,172.2,194.2,171.9,194.4,171.9z"/>
	</g>
	<ellipse class="st41" cx="118.1" cy="104" rx="0.9" ry="1.5"/>
	<path class="st17" d="M125,120c0.2-0.6,0.3-1.1,0.5-1.7c0-0.1,0-0.1,0.1-0.2c-2.8,0.7-5.3-0.3-5.2,0.4
		C121.7,119.6,123.3,120,125,120z"/>
</g>
<g>
	<path class="st7" d="M193,215.9c1.5-0.7,3.2-1.8,3.4-3.5c0.2-1.5-2.5-2.9-4-3.2c-3.2-0.6-5.4,0-6.9,0c-8,0.2-11.7,1-19.3,3.5
		c-3.8,1.3-7.6,2.7-11.4,4.3c-1.9,0.8-3.7,1.6-5.6,2.4c-1.2,0.5-5.7,3-6.3,4.1c5.7,2.2,6.7,0.5,15.5-1.2c6.4-1.2,15.5-3.4,21.7-5.4
		C183.6,215.8,189.7,217.5,193,215.9z"/>
	<path class="st47" d="M139.6,220.8c0,1,0.4,1.1,1.2,1.7c0.1,0.1,0.3,0.1,0.4,0.2c0.3,1,0.8,1.8,2.1,2c0.8,0.1,1.4,0.1,2.1-0.1
		c0.9-0.2,1.6-0.3,2.5-0.5c1.6-0.3,3.3-0.8,4.9-1.2c2.4-0.7,4.9-1.3,7.4-2c4.3-1.1,8.5-2.3,12.8-3.4c1.6-0.4,3.3-0.9,4.9-1.3
		c1.2-0.3,2.6-0.7,3.6-1.7c1.2-0.9,1.6-2.6,2.2-3.8c0.7-1.5,11.8-27.2,13.7-31.8c0.8-1.8,1.9-5,2.3-6.8c0.1-0.5,0.2-1,0.2-1.4
		c0-0.3-0.1-0.5-0.2-0.8c-0.2-0.6-0.8-1-1.4-1.1c-0.7-0.1-1.6-0.1-2.1,0c-2.1,0.1-4.4,0.3-6.5,0.5c-1.5,0.2-3.1,0.3-4.6,0.5
		c-3.6,0.4-7.2,0.8-10.7,1.1c-3.1,0.4-6.1,0.6-9.2,1c-1,0.2-2,0.2-3,0.5c-1.9,0.5-3.7,1.3-5.1,2.6c-1.8,1.6-2.8,4.6-3.6,6.8
		C150.2,190.2,140.9,216.4,139.6,220.8z"/>
	<path class="st48" d="M140.7,220.7c-0.1,0.1,0.9-0.3,0.8-0.2c6.6-14.2,11.5-28.3,16.8-43.1c0.3-0.8,0.8-1.4,1.5-1.8
		c2.4-1.2,4.4-1.5,6.9-1.9c2.9-0.4,6.5-1.1,10-1.5c5.6-0.6,8-1,14.2-1.7l-3.9-0.5c-9.3,0.9-19.2,1.9-27.8,4.2
		c-0.7,0.2-1.7,1-2.2,2.6c-5.6,14.8-10.5,28.7-16.5,43.4"/>
	<path class="st47" d="M146.6,219.6c0-0.4,0-0.7-0.2-1.1c-0.6-1.2-2.2-0.9-3-0.5c-1.3,0.6-2.4,1.4-3.5,2.3
		c-2.5,0.5-29.8,5.8-30.7,5.9c-0.7,0.2-1.6,0.3-2.3,0.6s-1.3,0.6-1.7,1.2c-0.2,0.5-0.5,1.1-0.2,1.8c0.4,1.1,1.8,1.2,2.8,1
		c0.7,0,35.5-5.8,36.1-5.9c1.2-0.3,1.7-1.1,2.3-2.2c0.3-0.6,0.4-1.4,0.5-2C146.7,220.3,146.8,219.9,146.6,219.6z"/>
	<g>
		<path class="st49" d="M139.8,220.9c-0.4,0-0.4-0.6,0-0.6c1.1,0,2.3,0.4,3,1.1c0.9,0.8,1.2,2.1,1,3.2c-0.1,0.4-0.7,0.3-0.6-0.1
			c0.2-1-0.1-2-0.9-2.7C141.7,221.2,140.7,220.8,139.8,220.9L139.8,220.9z"/>
	</g>
	<path class="st50" d="M160.1,221c4.3-1.1,8.5-2.3,12.8-3.4c1.6-0.4,3.3-0.9,4.9-1.3c1.2-0.3,2.6-0.7,3.6-1.7
		c1.2-0.9,1.6-2.6,2.2-3.8c0.7-1.5,11.8-27.2,13.7-31.8c0.8-1.8,1.9-5,2.3-6.8c0.1-0.5,0.2-1,0.2-1.4c-1-0.1-2.1,0.4-2.8,1
		c-1.6,1.4-2.9,3.6-4.2,5.3c-1.4,1.8-2.8,3.7-4.3,5.5c-3.4,4.3-6.7,8.7-10.1,13C172.1,203.7,165.6,212,160.1,221z"/>
	<g>
		<path class="st49" d="M143.5,222.3c-0.2,0.4-0.7,0.2-0.3-0.2c0.2-0.8,0.6-1.4,0.8-2.2c2.1-5.7,4.3-11.3,6.4-17
			c2.1-5.7,4.3-11.3,6.4-17c0.6-1.4,1-2.8,1.6-4.2c0.3-1,0.9-2.2,1.5-3.2c0.6-1,1.4-1.9,2.4-2.6c1.1-0.7,2.3-1,3.6-1.3
			c1.4-0.3,2.6-0.4,4-0.5c1.5-0.2,2.9-0.4,4.2-0.6c2.9-0.2,5.7-0.6,8.6-1c5.6-0.6,11.3-1.4,17-2c0.4,0,0.4,0.6,0,0.6
			c-0.6,0-1.4,0.2-2,0.2c-5.7,0.6-11.3,1.2-17,2c-2.9,0.2-5.6,0.6-8.4,1c-1.4,0.2-2.7,0.4-4.1,0.6s-2.6,0.4-3.8,0.8
			c-1.1,0.4-2.2,1.1-3,2c-0.8,0.8-1.4,1.9-1.9,3c-0.6,1.1-1,2.4-1.5,3.7c-0.6,1.4-1,2.8-1.6,4.2c-2.1,5.6-4.3,11.3-6.4,16.9
			C147.8,211,145.6,216.7,143.5,222.3L143.5,222.3z"/>
	</g>
	<g>
		<path class="st49" d="M179.1,191.4c-0.1-0.2-0.2-0.4-0.3-0.6c-0.5-0.8-1.4-1.2-2.2-0.9c-0.9,0.2-1.5,0.9-2,1.6
			c-1.2,1.6-1.9,3.7-2,5.7c0,0.9,0.1,1.9,0.9,2.6c0.5,0.4,1.3,0.4,1.9,0.2c1.6-0.5,2.5-1.9,3.1-3.2
			C179.3,195.1,179.7,193.2,179.1,191.4c0.1-0.4,0.4-0.5,0.5-0.2c0.1,0.2,0.2,0.4,0.1,0.6c0.1,1,0.1,2.1-0.1,3.1
			c-0.2,1-0.6,2-1.1,2.9c-0.4,0.7-0.9,1.4-1.6,1.8c-0.6,0.6-1.4,0.9-2.2,1c-0.9,0-1.6-0.4-2.1-1.1c-0.6-0.9-0.4-2.2-0.3-3.2
			c0.3-2.1,1.1-4.3,2.7-5.7c0.7-0.6,1.5-1.2,2.5-1.1c1.1,0.1,1.8,0.9,2.1,1.8C179.7,191.5,179.3,191.6,179.1,191.4z"/>
	</g>
</g>
<g>
	<g>
		<polyline class="st51" points="322.8,225 322.8,225.1 322.8,225.1 		"/>
		<line class="st52" x1="319.8" y1="225.1" x2="278" y2="225.1"/>
		<polyline class="st51" points="276.5,225.1 276.4,225.1 276.4,225 		"/>
		<line class="st53" x1="276.4" y1="222.2" x2="276.4" y2="203"/>
		<polyline class="st51" points="276.4,201.6 276.4,201.6 276.5,201.6 		"/>
		<line class="st52" x1="279.5" y1="201.6" x2="321.3" y2="201.6"/>
		<polyline class="st51" points="322.8,201.6 322.8,201.6 322.8,201.6 		"/>
		<line class="st53" x1="322.8" y1="204.5" x2="322.8" y2="223.6"/>
	</g>
</g>
</svg>
